<?xml version="1.0" encoding="UTF-8" standalone="no"?><!DOCTYPE svg PUBLIC "-//W3C//DTD SVG 1.1//EN" "http://www.w3.org/Graphics/SVG/1.1/DTD/svg11.dtd"><svg width="100px" height="100px" version="1.1" xmlns="http://www.w3.org/2000/svg" xmlns:xlink="http://www.w3.org/1999/xlink" xml:space="preserve" xmlns:serif="http://www.serif.com/" style="fill-rule:evenodd;clip-rule:evenodd;stroke-linecap:round;stroke-linejoin:round;stroke-miterlimit:1.5;"><g transform="matrix(0.143835,0,0,0.143835,-24.5117,-27.7516)"><g id="Plan-de-travail1" serif:id="Plan de travail1"><rect x="174.16" y="201.016" width="700.18" height="700.18" style="fill:none;"/><g transform="matrix(-1,0,0,1,1049.23,27.3441)"><path d="M423.5,271.5C420.628,302.525 414.295,332.858 404.5,362.5C404.436,359.029 405.103,355.695 406.5,352.5C406.523,350.933 406.023,349.6 405,348.5C404.667,349.167 404.333,349.833 404,350.5C402.872,348.655 402.372,346.655 402.5,344.5C404.359,344.539 405.692,343.706 406.5,342C405.747,340.513 404.914,340.346 404,341.5C403.667,340.833 403.333,340.167 403,339.5C402.694,341.906 401.861,344.073 400.5,346C401.537,348.513 400.537,350.013 397.5,350.5C406.679,328.42 410.512,305.42 409,281.5C407.534,279.675 405.701,279.175 403.5,280C395.752,287.9 389.419,296.733 384.5,306.5L384.5,300.5C380.944,300.275 380.61,301.108 383.5,303C380.831,303.829 378.331,305.662 376,308.5C375.667,308.167 375.333,307.833 375,307.5C372.253,309.061 369.753,311.395 367.5,314.5C370.984,308.207 373.317,301.541 374.5,294.5C374.345,287.902 373.012,281.569 370.5,275.5C367.981,286.598 365.148,297.598 362,308.5C361.667,298.5 361.333,288.5 361,278.5C358.136,284.227 355.303,289.894 352.5,295.5C353.741,288.222 356.908,281.555 362,275.5C362.333,279.167 362.667,282.833 363,286.5C365.435,282.895 366.601,278.895 366.5,274.5C369.119,274.768 371.619,274.435 374,273.5C374.388,270.151 374.221,266.817 373.5,263.5C377.368,270.607 379.868,278.274 381,286.5C388.458,275.375 397.624,265.875 408.5,258C411.303,257.245 413.97,257.578 416.5,259C419.747,262.66 422.08,266.827 423.5,271.5Z" style="fill:rgb(161,66,30);"/></g><g transform="matrix(-1,0,0,1,1049.23,27.3441)"><path d="M823.5,421.5C822.913,503.234 800.079,577.901 755,645.5C716.995,698.102 665.828,729.769 601.5,740.5C600.167,740.333 598.833,740.167 597.5,740C604.449,732.895 610.783,725.395 616.5,717.5C726.13,653.197 767.964,558.53 742,433.5C729.461,385.211 700.295,351.377 654.5,332C642.975,327.542 631.309,323.875 619.5,321C645,331.833 663.167,350 674,375.5C676.117,383.696 676.95,392.029 676.5,400.5C657.38,391.628 637.38,385.461 616.5,382C603.833,381.333 591.167,381.333 578.5,382C574.442,382.34 570.442,383.007 566.5,384C623.85,388.204 665.184,416.038 690.5,467.5C690.167,467.833 689.833,468.167 689.5,468.5C672.985,455.74 654.318,448.907 633.5,448C656.887,457.053 673.387,473.219 683,496.5C692.646,523.703 692.979,551.036 684,578.5C678.02,598.807 668.187,616.807 654.5,632.5C671.537,593.773 674.037,554.107 662,513.5C651.882,487.055 635.382,465.555 612.5,449C591.67,437.18 572.837,422.68 556,405.5C540.818,387.146 532.318,366.146 530.5,342.5C550.97,357.73 572.97,360.563 596.5,351C576.374,341.756 559.374,328.423 545.5,311C580.221,288.491 617.888,281.158 658.5,289C676.296,293.66 690.296,303.493 700.5,318.5C704.76,302.538 701.593,288.205 691,275.5C686.114,270.646 680.947,266.146 675.5,262C718.127,271.735 753.294,293.568 781,327.5C803.019,355.21 817.185,386.543 823.5,421.5Z" style="fill:rgb(167,68,28);"/></g><g transform="matrix(-1,0,0,1,1049.23,27.3441)"><path d="M367.5,314.5C361.023,314.888 354.356,314.888 347.5,314.5C348.961,308.116 350.628,301.783 352.5,295.5C355.303,289.894 358.136,284.227 361,278.5C361.333,288.5 361.667,298.5 362,308.5C365.148,297.598 367.981,286.598 370.5,275.5C373.012,281.569 374.345,287.902 374.5,294.5C373.317,301.541 370.984,308.207 367.5,314.5Z" style="fill:rgb(116,36,13);"/></g><g transform="matrix(-1,0,0,1,1049.23,27.3441)"><path d="M423.5,271.5C428.612,287.173 429.779,303.173 427,319.5C425.455,328.345 423.289,337.012 420.5,345.5C417.635,348.19 415.469,351.523 414,355.5C410.045,361.123 405.712,366.457 401,371.5C402.096,368.614 403.262,365.614 404.5,362.5C414.295,332.858 420.628,302.525 423.5,271.5Z" style="fill:rgb(111,35,15);"/></g><g transform="matrix(-1,0,0,1,1049.23,27.3441)"><path d="M397.5,350.5C393.26,360.896 386.926,369.729 378.5,377C376.299,377.825 374.466,377.325 373,375.5C371.609,351.623 375.442,328.623 384.5,306.5C389.419,296.733 395.752,287.9 403.5,280C405.701,279.175 407.534,279.675 409,281.5C410.512,305.42 406.679,328.42 397.5,350.5Z" style="fill:rgb(253,223,197);"/></g><g transform="matrix(-1,0,0,1,1049.23,27.3441)"><path d="M373.5,263.5C374.221,266.817 374.388,270.151 374,273.5C371.619,274.435 369.119,274.768 366.5,274.5C366.601,278.895 365.435,282.895 363,286.5C362.667,282.833 362.333,279.167 362,275.5C356.908,281.555 353.741,288.222 352.5,295.5C350.628,301.783 348.961,308.116 347.5,314.5C354.356,314.888 361.023,314.888 367.5,314.5C369.753,311.395 372.253,309.061 375,307.5C375.333,307.833 375.667,308.167 376,308.5C378.331,305.662 380.831,303.829 383.5,303C380.61,301.108 380.944,300.275 384.5,300.5L384.5,306.5C375.442,328.623 371.609,351.623 373,375.5C374.466,377.325 376.299,377.825 378.5,377C386.926,369.729 393.26,360.896 397.5,350.5C400.537,350.013 401.537,348.513 400.5,346C401.861,344.073 402.694,341.906 403,339.5C403.333,340.167 403.667,340.833 404,341.5C404.914,340.346 405.747,340.513 406.5,342C405.692,343.706 404.359,344.539 402.5,344.5C402.372,346.655 402.872,348.655 404,350.5C404.333,349.833 404.667,349.167 405,348.5C406.023,349.6 406.523,350.933 406.5,352.5C405.103,355.695 404.436,359.029 404.5,362.5C403.262,365.614 402.096,368.614 401,371.5C405.712,366.457 410.045,361.123 414,355.5C415.469,351.523 417.635,348.19 420.5,345.5C428.377,364.258 436.544,382.924 445,401.5C457.174,423.672 475.008,439.506 498.5,449C523.058,454.518 546.391,463.184 568.5,475C629.064,515.304 653.731,571.47 642.5,643.5C639.417,654.084 635.751,664.417 631.5,674.5C631.649,673.448 631.483,672.448 631,671.5C618,688.504 602.5,702.671 584.5,714C553.106,730.943 520.772,732.943 487.5,720C463.413,708.914 448.58,690.414 443,664.5C441.626,652.317 441.126,640.317 441.5,628.5C459.02,606.149 482.02,596.982 510.5,601C536.081,605.703 556.915,618.203 573,638.5C573.611,634.318 572.944,630.318 571,626.5C561.653,606.821 546.82,592.988 526.5,585C502.172,577.418 477.505,571.084 452.5,566C443.064,562.877 435.898,557.043 431,548.5C428.849,558.692 425.849,568.692 422,578.5C410.055,600.9 391.221,611.566 365.5,610.5C354.271,609.257 343.604,606.09 333.5,601C328.669,598.938 323.669,598.271 318.5,599C307.211,607.598 294.544,611.431 280.5,610.5C279.081,607.505 279.581,604.838 282,602.5C284.46,601.042 286.627,599.209 288.5,597C284.868,599.24 281.035,601.407 277,603.5C273.689,603.187 272.189,601.353 272.5,598C275.89,583.609 284.557,573.943 298.5,569C302.833,568 307.167,567 311.5,566C324.243,565.275 336.91,565.608 349.5,567C354.517,562.163 358.517,556.663 361.5,550.5C367.95,538.384 371.784,525.384 373,511.5C374.051,500.053 373.384,488.72 371,477.5C370.882,475.427 369.882,474.093 368,473.5C358.906,476.926 349.74,479.593 340.5,481.5C315.27,485.208 290.936,482.208 267.5,472.5C287.118,463.941 293.618,449.607 287,429.5C282.604,424.552 277.104,422.218 270.5,422.5C259.97,424.063 249.636,426.563 239.5,430C237.934,430.608 236.6,431.442 235.5,432.5C234.091,430.028 232.424,427.695 230.5,425.5C240.45,366.713 274.45,330.213 332.5,316C338.127,296.78 346.627,278.947 358,262.5C361.266,257.785 365.433,256.285 370.5,258C372.16,259.488 373.16,261.321 373.5,263.5Z" style="fill:rgb(166,68,28);"/></g><g transform="matrix(-1,0,0,1,1050.12,25.7023)"><ellipse cx="327.784" cy="393.938" rx="27.221" ry="27.945" style="fill:rgb(251,249,248);"/></g><g transform="matrix(-1,0,0,1,1049.8,26.3901)"><circle cx="327.839" cy="393.424" r="14.454" style="fill:rgb(26,18,22);"/></g><g transform="matrix(-1,0,0,1,1049.23,27.3441)"><path d="M616.5,717.5C624.481,704.226 629.481,689.893 631.5,674.5C635.751,664.417 639.417,654.084 642.5,643.5C642.369,644.239 642.536,644.906 643,645.5C646.699,640.973 650.532,636.639 654.5,632.5C668.187,616.807 678.02,598.807 684,578.5C692.979,551.036 692.646,523.703 683,496.5C673.387,473.219 656.887,457.053 633.5,448C654.318,448.907 672.985,455.74 689.5,468.5C689.833,468.167 690.167,467.833 690.5,467.5C665.184,416.038 623.85,388.204 566.5,384C570.442,383.007 574.442,382.34 578.5,382C591.167,381.333 603.833,381.333 616.5,382C637.38,385.461 657.38,391.628 676.5,400.5C676.95,392.029 676.117,383.696 674,375.5C663.167,350 645,331.833 619.5,321C631.309,323.875 642.975,327.542 654.5,332C700.295,351.377 729.461,385.211 742,433.5C767.964,558.53 726.13,653.197 616.5,717.5Z" style="fill:rgb(242,148,90);"/></g><g transform="matrix(-1,0,0,1,1049.23,27.3441)"><path d="M230.5,425.5C232.424,427.695 234.091,430.028 235.5,432.5C236.481,437.129 236.648,441.796 236,446.5C235.34,448.324 234.173,449.657 232.5,450.5C221.761,448.602 216.928,442.268 218,431.5C220.528,425.818 224.694,423.818 230.5,425.5Z" style="fill:rgb(29,19,23);"/></g><g transform="matrix(-1,0,0,1,1049.23,27.3441)"><g><path d="M267.5,472.5C252.742,469.961 241.076,462.628 232.5,450.5C234.173,449.657 235.34,448.324 236,446.5C236.648,441.796 236.481,437.129 235.5,432.5C236.6,431.442 237.934,430.608 239.5,430C249.636,426.563 259.97,424.063 270.5,422.5C277.104,422.218 282.604,424.552 287,429.5C293.618,449.607 287.118,463.941 267.5,472.5Z" style="fill:rgb(254,224,198);"/></g></g><g transform="matrix(-1,0,0,1,1049.23,27.3441)"><path d="M361.5,550.5C360.584,531.004 357.084,512.004 351,493.5C349.333,490.833 347.667,488.167 346,485.5C345.316,484.216 345.483,483.049 346.5,482C344.527,481.505 342.527,481.338 340.5,481.5C349.74,479.593 358.906,476.926 368,473.5C369.882,474.093 370.882,475.427 371,477.5C373.384,488.72 374.051,500.053 373,511.5C371.784,525.384 367.95,538.384 361.5,550.5Z" style="fill:rgb(253,224,200);"/></g><g transform="matrix(-1,0,0,1,1049.23,27.3441)"><path d="M823.5,421.5C837.482,501.606 824.649,577.272 785,648.5C762.575,687.259 731.408,716.759 691.5,737C667.85,747.246 643.183,753.413 617.5,755.5C604.163,755.333 590.829,755.5 577.5,756C568.921,760.082 559.921,762.748 550.5,764C489.167,764.667 427.833,764.667 366.5,764C365.333,760.094 366.667,757.094 370.5,755C363.941,756.469 357.275,757.636 350.5,758.5C348.667,756.504 348.167,754.171 349,751.5C356.473,738.668 367.64,731.168 382.5,729C390.5,728.333 398.5,728.333 406.5,729C417.445,731.489 428.445,733.656 439.5,735.5C455.251,741.664 457.418,739.33 446,728.5C430.377,709.294 423.377,687.294 425,662.5C427.603,649.629 433.103,638.296 441.5,628.5C441.126,640.317 441.626,652.317 443,664.5C448.58,690.414 463.413,708.914 487.5,720C520.772,732.943 553.106,730.943 584.5,714C602.5,702.671 618,688.504 631,671.5C631.483,672.448 631.649,673.448 631.5,674.5C629.481,689.893 624.481,704.226 616.5,717.5C610.783,725.395 604.449,732.895 597.5,740C598.833,740.167 600.167,740.333 601.5,740.5C665.828,729.769 716.995,698.102 755,645.5C800.079,577.901 822.913,503.234 823.5,421.5Z" style="fill:rgb(110,34,16);"/></g><g transform="matrix(-1,0,0,1,1049.23,27.3441)"><path d="M441.5,628.5C433.103,638.296 427.603,649.629 425,662.5C423.377,687.294 430.377,709.294 446,728.5C457.418,739.33 455.251,741.664 439.5,735.5C440.873,735.657 442.207,735.49 443.5,735C399.389,705.015 373.389,663.515 365.5,610.5C391.221,611.566 410.055,600.9 422,578.5C425.849,568.692 428.849,558.692 431,548.5C435.898,557.043 443.064,562.877 452.5,566C477.505,571.084 502.172,577.418 526.5,585C546.82,592.988 561.653,606.821 571,626.5C572.944,630.318 573.611,634.318 573,638.5C556.915,618.203 536.081,605.703 510.5,601C482.02,596.982 459.02,606.149 441.5,628.5Z" style="fill:rgb(254,224,199);"/></g></g><g transform="matrix(6.95241,0,0,6.95241,166.728,208.816)"><path d="M88.706,39.378C88.266,40.297 89.894,41.116 90.595,41.117" style="fill:none;stroke:black;stroke-width:0.2px;"/></g></g></svg>