<svg id="Calque_1" data-name="Calque 1" xmlns="http://www.w3.org/2000/svg" xmlns:xlink="http://www.w3.org/1999/xlink" viewBox="0 0 1517.2 488.7"><defs><clipPath id="clip-path"><rect x="-246" y="-388.7" width="2217.5" height="2063.9" style="fill:none"/></clipPath><clipPath id="clip-path-7"><rect x="-75.8" y="-111.3" width="1913.1" height="1780.6" style="fill:none"/></clipPath></defs><rect width="1279.4" height="488.7" style="fill:#2e63a9"/><circle cx="1272.9" cy="244.3" r="244.3" style="fill:#2e63a9"/><rect x="21.7" y="31.6" width="420.9" height="420.9" style="fill:#fff"/><g style="clip-path:url(#clip-path)"><path d="M256.8,172.7a81.8,81.8,0,1,0,81.8-81.8,81.83,81.83,0,0,0-81.8,81.8m17.4,0A64.4,64.4,0,1,1,338.6,237a64.49,64.49,0,0,1-64.4-64.3" style="fill:#4e76ae"/></g><g style="clip-path:url(#clip-path)"><path d="M256.8,172.7a81.8,81.8,0,1,0,81.8-81.8A81.83,81.83,0,0,0,256.8,172.7Zm17.4,0A64.4,64.4,0,1,1,338.6,237,64.49,64.49,0,0,1,274.2,172.7Z" style="fill:none;stroke:#889cc7;stroke-width:2px"/></g><g style="clip-path:url(#clip-path)"><polygon points="342.8 53.9 375.5 53.9 351.8 78.8 333.3 78.8 342.8 53.9" style="fill:#4e76ae"/></g><g style="clip-path:url(#clip-path)"><polygon points="342.8 53.9 375.5 53.9 351.8 78.8 333.3 78.8 342.8 53.9" style="fill:none;stroke:#889cc7;stroke-width:2px"/></g><g style="clip-path:url(#clip-path)"><polygon points="308.8 128.4 368.6 128.4 368.6 148.3 331.6 148.4 331.6 161.2 366.2 161.2 366.2 181.2 331.6 181.2 331.6 194 368.6 194 368.6 214 308.8 214 308.8 128.4" style="fill:#4e76ae"/></g><g style="clip-path:url(#clip-path)"><polygon points="308.8 128.4 368.6 128.4 368.6 148.3 331.6 148.4 331.6 161.2 366.2 161.2 366.2 181.2 331.6 181.2 331.6 194 368.6 194 368.6 214 308.8 214 308.8 128.4" style="fill:none;stroke:#889cc7;stroke-width:2px"/></g><g style="isolation:isolate"><path d="M145.31,164.42H134.56c-3,0-5.38-1.81-5.38-4.06v-15c0-2.25,2.4-4.06,5.38-4.06h5.37v-4.22h-9.59v-4.06h9.59c3,0,5.38,1.81,5.38,4.06Zm-10.75-4.06h5.37v-15h-5.37Z"/><path d="M166.8,158.66c0,3.35-3.63,6.09-8.06,6.09s-8.06-2.74-8.06-6.09V138.82c0-3.35,3.63-6.09,8.06-6.09s8.06,2.74,8.06,6.09v2.36h-5.37v-4.06h-5.37v23.24h5.37v-4.05h5.37Z"/><path d="M188.3,164.42H177.55c-3,0-5.37-1.81-5.37-4.06v-15c0-2.25,2.4-4.06,5.37-4.06h5.38v-4.22h-9.59v-4.06h9.59c3,0,5.37,1.81,5.37,4.06Zm-10.75-4.06h5.38v-15h-5.38Z"/><path d="M209.8,164.42H199.05c-3,0-5.37-1.81-5.37-4.06V137.12c0-2.25,2.4-4.06,5.37-4.06h5.38v-7.78h5.37Zm-10.75-4.06h5.38V137.12h-5.38Z"/><path d="M215.18,138.82c0-3.35,3.63-6.09,8.06-6.09s8.06,2.74,8.06,6.09v12H220.55v9.59h5.38v-4.05h5.37v2.35c0,3.35-3.63,6.09-8.06,6.09s-8.06-2.74-8.06-6.09Zm15.47-12.12L215.83,131v-3.79l14.82-4.27Zm-10.1,20h5.38v-9.59h-5.38Z"/><path d="M236.68,133.06h21.5c3,0,5.37,1.81,5.37,4.06v27.3h-5.37v-27.3H252.8v27.3h-5.37v-27.3h-5.38v27.3h-5.37Z"/><path d="M274.3,129.33h-5.37v-4.05h5.37Zm0,35.42a7,7,0,0,1-3.77-1.21,3.49,3.49,0,0,1-1.6-2.85V133.06h5.37Z"/><path d="M279.68,138.82c0-3.35,3.63-6.09,8.06-6.09s8.06,2.74,8.06,6.09v12H285.05v9.59h5.38v-4.05h5.37v2.35c0,3.35-3.63,6.09-8.06,6.09s-8.06-2.74-8.06-6.09Zm5.37,7.89h5.38v-9.59h-5.38Z"/></g><g style="isolation:isolate"><path d="M146,178c0-3.34,3.63-6.08,8.06-6.08s8.07,2.74,8.07,6.08v4.44h-5.38v-6.14H151.4v31h5.37V193.88h-2.32v-4.06h7.7v15.84c0,3.35-3.63,6.09-8.07,6.09S146,209,146,205.66Z"/><path d="M167.52,184.12c0-2.25,2.4-4.06,5.38-4.06h5.37v4.06H172.9v27.3h-5.38Z"/><path d="M182.34,185.82c0-3.35,3.63-6.09,8.06-6.09s8.06,2.74,8.06,6.09v12H187.71v9.59h5.38v-4.05h5.37v2.35c0,3.35-3.63,6.09-8.06,6.09s-8.06-2.74-8.06-6.09Zm5.37,7.89h5.38v-9.59h-5.38Z"/><path d="M203.84,180.06h10.75c3,0,5.37,1.81,5.37,4.06v27.3h-5.37v-27.3h-5.38v27.3h-5.37Z"/><path d="M225.34,185.82c0-3.35,3.63-6.09,8.06-6.09s8.06,2.74,8.06,6.09v19.84c0,3.35-3.63,6.09-8.06,6.09s-8.06-2.74-8.06-6.09Zm5.37,21.54h5.38V184.12h-5.38Z"/><path d="M246.84,172.28h5.37v7.78h5.38c3,0,5.37,1.81,5.37,4.06v23.24c0,2.25-2.39,4.06-5.37,4.06H246.84Zm5.37,35.08h5.38V184.12h-5.38Z"/><path d="M268.34,172a7,7,0,0,1,3.77,1.2,3.52,3.52,0,0,1,1.6,2.85v35.42h-5.37Z"/><path d="M279.09,185.82c0-3.35,3.63-6.09,8.06-6.09s8.06,2.74,8.06,6.09v12H284.46v9.59h5.38v-4.05h5.37v2.35c0,3.35-3.63,6.09-8.06,6.09s-8.06-2.74-8.06-6.09Zm5.37,7.89h5.38v-9.59h-5.38Z"/></g><g style="clip-path:url(#clip-path-7)"><path d="M87.7,405.8a3,3,0,0,1-1-.2,7.55,7.55,0,0,1-1.1-1.4c-.4-.7-.9-1.5-1.3-2.1h-.5v1.6a3.78,3.78,0,0,0,.1,1.2.67.67,0,0,0,.7.5v.3H81.4v-.3a1.07,1.07,0,0,0,.6-.2,1.42,1.42,0,0,0,.2-.6v-3.8a9.33,9.33,0,0,0-.1-2.2c-.1-.3-.3-.5-.8-.5v-.3h3.6a2.67,2.67,0,0,1,1.7.4,1.94,1.94,0,0,1,.8,1.6,2.41,2.41,0,0,1-1.8,2.2,18.76,18.76,0,0,1,1.2,1.8,11.76,11.76,0,0,0,1.1,1.5,1.33,1.33,0,0,0,.5.3v.3c0-.1-.3-.1-.7-.1m-3.1-7.6a1.7,1.7,0,0,0-.7.1v3h.5a1.55,1.55,0,0,0,1.7-1.6,1.47,1.47,0,0,0-1.5-1.5" style="fill:#222221"/></g><g style="clip-path:url(#clip-path-7)"><path d="M91.7,398.4l-.5-.3,1-1.5,1.2.2Zm2.2,7.2c-.1.2-.2.2-.7.2H89.4v-.4a.68.68,0,0,0,.7-.7v-3.9a2.51,2.51,0,0,0-.1-1,.55.55,0,0,0-.6-.4v-.3h4.7v1.6h-.4c-.1-.8-.4-1-1.6-1h-.8V402h.5c1,0,1.4-.2,1.4-.7h.4v2h-.4c0-.6-.3-.7-1.3-.7h-.5v1.9q0,.6.3.6a5.64,5.64,0,0,0,.7.1c1.1,0,1.5-.2,1.7-1.1l.4.1c-.3.6-.5,1.2-.6,1.4" style="fill:#222221"/></g><g style="clip-path:url(#clip-path-7)"><path d="M98.1,402.7h-.3l-.2-.5c.9-.1,1.5-.5,1.5-1.3a1.29,1.29,0,0,0-1.3-1.4h-.4v3.6a5.83,5.83,0,0,0,.1,1.8.55.55,0,0,0,.6.4v.3H95.5v-.2c.5,0,.6-.3.7-.7v-4a2.51,2.51,0,0,0-.1-1,.55.55,0,0,0-.6-.4V399h1.2c.5,0,1-.1,1.5-.1,1.4,0,2.3.7,2.3,1.9a2.17,2.17,0,0,1-2.4,1.9" style="fill:#222221"/></g><g style="clip-path:url(#clip-path-7)"><path d="M107.2,399.6a1.55,1.55,0,0,0-.2.8v3a2.24,2.24,0,0,1-.4,1.5,2.46,2.46,0,0,1-2.2,1,2.93,2.93,0,0,1-1.6-.4,2.09,2.09,0,0,1-1-2.1V400c-.1-.4-.3-.5-.7-.6v-.3h2.6v.3a.6.6,0,0,0-.6.3,1.72,1.72,0,0,0-.1.8v1.9c0,1.7,0,2.1.4,2.4a1.29,1.29,0,0,0,1.1.5,1.42,1.42,0,0,0,1.5-1,7.7,7.7,0,0,0,.1-1.9v-1a5.39,5.39,0,0,0-.1-1.7.55.55,0,0,0-.5-.3v-.3h2.1v.3c-.2,0-.3,0-.4.2" style="fill:#222221"/></g><g style="clip-path:url(#clip-path-7)"><path d="M113.3,405.2a2.83,2.83,0,0,1-2,.5h-2.6v-.3a.63.63,0,0,0,.7-.7v-3.4a5.79,5.79,0,0,0-.1-1.6.55.55,0,0,0-.6-.4V399h3.4c.9,0,1.8.4,1.8,1.5,0,.8-.5,1.3-1.4,1.5a1.74,1.74,0,0,1,.8,3.2m-2.2-5.6h-.5v2.2h.5c1,0,1.5-.4,1.5-1.1s-.6-1.1-1.5-1.1m.1,2.8h-.6v1.4a2.81,2.81,0,0,0,.1,1.1.72.72,0,0,0,.7.4,1.16,1.16,0,0,0,1.3-1.3,1.45,1.45,0,0,0-1.5-1.6" style="fill:#222221"/></g><g style="clip-path:url(#clip-path-7)"><path d="M119.6,405.6c-.1.1-.2.2-.7.2H115v-.4a.76.76,0,0,0,.5-.2c.2-.2.2-.5.2-1.2v-2.5a5.39,5.39,0,0,0-.1-1.8.55.55,0,0,0-.6-.4V399h2.7v.3a.77.77,0,0,0-.8.7v3.2c0,1.4,0,1.6.1,1.7s.3.2.8.2a2.33,2.33,0,0,0,1.1-.2c.3-.1.5-.5.6-.9l.4.1a2.81,2.81,0,0,1-.3,1.5" style="fill:#222221"/></g><g style="clip-path:url(#clip-path-7)"><path d="M123.1,405.7h-2.4v-.3a.63.63,0,0,0,.7-.7v-4a2.51,2.51,0,0,0-.1-1,.55.55,0,0,0-.6-.4V399h2.6v.3c-.4,0-.6.3-.7.7v3.2a5.83,5.83,0,0,0,.1,1.8.55.55,0,0,0,.6.4v.3Z" style="fill:#222221"/></g><g style="clip-path:url(#clip-path-7)"><path d="M132.5,407.5a4.42,4.42,0,0,1-2.4-.7,14.31,14.31,0,0,1-1.5-1.1,2.2,2.2,0,0,1-.8.1,3.18,3.18,0,0,1-3.4-3.3,3.47,3.47,0,0,1,3.6-3.6,3.18,3.18,0,0,1,3.4,3.3,3.37,3.37,0,0,1-1.9,3.2c.4.2.7.4,1.1.6a4.79,4.79,0,0,0,2.4.9,3,3,0,0,0,1.2-.3l.1.3a2.79,2.79,0,0,1-1.8.6m-4.7-7.9a2.19,2.19,0,0,0-2.1,2.4c0,1.7,1,3.1,2.3,3.1a2.23,2.23,0,0,0,2.1-2.5c0-1.6-1-3-2.3-3" style="fill:#222221"/></g><g style="clip-path:url(#clip-path-7)"><path d="M138.3,399.6a1.55,1.55,0,0,0-.2.8v3a2.24,2.24,0,0,1-.4,1.5,2.46,2.46,0,0,1-2.2,1,2.93,2.93,0,0,1-1.6-.4,2.09,2.09,0,0,1-1-2.1v-1.9a7.57,7.57,0,0,0-.1-1.5c-.1-.4-.2-.5-.7-.6v-.3h2.6v.3a.6.6,0,0,0-.6.3,1.72,1.72,0,0,0-.1.8v1.9c0,1.7,0,2.1.3,2.4a1.29,1.29,0,0,0,1.1.5,1.42,1.42,0,0,0,1.5-1,7.7,7.7,0,0,0,.1-1.9v-1a5.39,5.39,0,0,0-.1-1.7.55.55,0,0,0-.5-.3v-.3h2v.3c.2,0,0,0-.1.2" style="fill:#222221"/></g><g style="clip-path:url(#clip-path-7)"><path d="M144.4,405.6c-.1.2-.2.2-.7.2h-3.8v-.4a.68.68,0,0,0,.7-.7v-3.9a2.51,2.51,0,0,0-.1-1,.55.55,0,0,0-.6-.4v-.3h4.7v1.6h-.4c-.1-.8-.4-1-1.6-1h-.7V402h.5c1,0,1.4-.2,1.4-.7h.4v2h-.4c0-.6-.3-.7-1.3-.7H142v1.9q0,.6.3.6c.2,0,.4.1.7.1,1.1,0,1.5-.2,1.7-1.1l.4.1a8.64,8.64,0,0,0-.7,1.4" style="fill:#222221"/></g><g style="clip-path:url(#clip-path-7)"><path d="M153.7,399.6c0-.9-.5-1.2-1.9-1.2H151v2.7h.6c1.1,0,1.5-.2,1.5-.8h.4v2.4h-.4c-.1-.7-.4-.9-1.6-.9H151V404c0,.7.1,1.2.9,1.3v.3h-3.2v-.2c.6,0,.8-.4.8-.9v-4.8a3.78,3.78,0,0,0-.1-1.2.67.67,0,0,0-.7-.5v-.3h5.6v1.9Z" style="fill:#222221"/></g><g style="clip-path:url(#clip-path-7)"><path d="M160.3,405.8a1.55,1.55,0,0,1-.8-.2,3.78,3.78,0,0,1-.9-1.2,9.91,9.91,0,0,0-1.1-1.7h-.4V404a2.51,2.51,0,0,0,.1,1,.55.55,0,0,0,.6.4v.3h-2.6v-.3a.68.68,0,0,0,.7-.7v-3.2a6.27,6.27,0,0,0-.1-1.8.55.55,0,0,0-.6-.4V399h3a2.42,2.42,0,0,1,1.4.3,1.61,1.61,0,0,1,.6,1.3,1.88,1.88,0,0,1-1.5,1.8,13,13,0,0,1,1,1.5,4.14,4.14,0,0,0,.9,1.2.52.52,0,0,0,.4.2v.3c-.1.2-.3.2-.7.2m-2.5-6.3a1.27,1.27,0,0,0-.6.1v2.5h.4a1.29,1.29,0,0,0,1.4-1.3,1.24,1.24,0,0,0-1.2-1.3" style="fill:#222221"/></g><g style="clip-path:url(#clip-path-7)"><path d="M167.6,405.7h-2.4v-.3a.47.47,0,0,0,.5-.5,2.14,2.14,0,0,0-.1-.6c-.1-.4-.2-.6-.3-1h-2l-.2.6a2.4,2.4,0,0,0-.2,1c0,.3.1.4.4.4v.3h-2v-.2a.37.37,0,0,0,.3-.1,3.43,3.43,0,0,0,.7-1.3l1-2.4c.3-.7.6-1.7.9-2.6h.7c.1.3.3.8.4,1.2l1.4,3.6a8.66,8.66,0,0,0,.5,1.2.66.66,0,0,0,.5.4l-.1.3Zm-3.3-4.9c-.3.7-.6,1.6-.8,2H165Z" style="fill:#222221"/></g><g style="clip-path:url(#clip-path-7)"><path d="M174.7,399.6a3,3,0,0,0-.2.9v5.2h-.7c-.6-.8-2-2.5-2-2.5-.2-.2-1.4-1.7-2-2.5v3.5a1.55,1.55,0,0,0,.2.8.55.55,0,0,0,.5.3v.3h-2.2v-.2c.7,0,.7-.6.7-1.1v-3.5c0-.8,0-1-.2-1.3s-.2-.2-.5-.2V399h1.8a15.14,15.14,0,0,0,1,1.3c1,1.2,1.9,2.2,2.7,3.2v-2.1a4.2,4.2,0,0,0-.1-1.5.63.63,0,0,0-.6-.5v-.3h2.2v.3a.45.45,0,0,0-.6.2" style="fill:#222221"/></g><g style="clip-path:url(#clip-path-7)"><path d="M181.6,405.5a4.48,4.48,0,0,1-2,.4l-.1.4h.2a.58.58,0,0,1,.6.6c0,.5-.4.9-1.1.9a1.27,1.27,0,0,1-.6-.1l.1-.4c.1,0,.2.1.3.1.3,0,.5-.1.5-.4s-.1-.3-.2-.3-.1,0-.2.1l-.2-.1.2-.8a3.67,3.67,0,0,1-2.1-.9,3.55,3.55,0,0,1-1-2.5c0-2.2,1.4-3.5,3.7-3.5a5.41,5.41,0,0,1,1.9.3v1.5h-.4a1.47,1.47,0,0,0-1.6-1.1,2.21,2.21,0,0,0-2.3,2.5c0,1.8,1,3.1,2.4,3.1a1.52,1.52,0,0,0,1.6-1.2l.4.1a3.14,3.14,0,0,1-.1,1.3" style="fill:#222221"/></g><g style="clip-path:url(#clip-path-7)"><path d="M188.6,405.7h-2.4v-.3a.47.47,0,0,0,.5-.5,2.14,2.14,0,0,0-.1-.6c-.1-.4-.2-.6-.3-1h-2l-.2.6a8.38,8.38,0,0,0-.2,1c0,.3.1.4.5.4v.3h-2v-.2a.37.37,0,0,0,.3-.1,3.43,3.43,0,0,0,.7-1.3l.9-2.4a15.78,15.78,0,0,0,.9-2.6h.7c.1.3.3.8.4,1.2l1.4,3.6a8.66,8.66,0,0,0,.5,1.2.66.66,0,0,0,.5.4l-.1.3Zm-3.3-4.9c-.3.7-.6,1.6-.8,2H186Z" style="fill:#222221"/></g><g style="clip-path:url(#clip-path-7)"><path d="M191.8,405.7h-2.4v-.3c.5,0,.6-.3.7-.7v-4a2.51,2.51,0,0,0-.1-1,.55.55,0,0,0-.6-.4V399H192v.3c-.4,0-.6.3-.7.7v3.2a5.83,5.83,0,0,0,.1,1.8.55.55,0,0,0,.6.4v.3Z" style="fill:#222221"/></g><g style="clip-path:url(#clip-path-7)"><path d="M195,405.8a5.55,5.55,0,0,1-1.7-.3,6.75,6.75,0,0,0-.2-1.4l.4-.1a1.49,1.49,0,0,0,1.5,1.2c.7,0,1.2-.4,1.2-.9a1.15,1.15,0,0,0-.8-1l-1-.7a2,2,0,0,1-1.1-1.8c0-1.1.9-1.8,2.2-1.8a2.73,2.73,0,0,1,1.6.4v1.3h-.4a1.22,1.22,0,0,0-1.3-1.1,1,1,0,0,0-1.1.9c0,.5.3.8.9,1.1l.8.5c.8.5,1.3,1,1.3,1.8,0,1.2-.9,1.9-2.3,1.9" style="fill:#222221"/></g><g style="clip-path:url(#clip-path-7)"><path d="M203,405.6c-.1.2-.2.2-.7.2h-3.8v-.4c.4,0,.6-.3.7-.7v-3.9a2.51,2.51,0,0,0-.1-1,.55.55,0,0,0-.6-.4v-.3h4.7v1.6h-.4c-.1-.8-.4-1-1.6-1h-.7V402h.4c1,0,1.4-.2,1.4-.7h.4v2h-.4c0-.6-.3-.7-1.3-.7h-.5v1.9q0,.6.3.6a5.64,5.64,0,0,0,.7.1c1.1,0,1.5-.2,1.7-1.1l.4.1c-.3.6-.5,1.2-.6,1.4" style="fill:#222221"/></g><g style="clip-path:url(#clip-path-7)"><path d="M85,388.6c-.1.1-.2.2-.6.2H80.8v-.2a.6.6,0,0,0,.6-.3,1.88,1.88,0,0,0,.4-1c.1-.5.2-.8.4-1.8l.2-.8a5.42,5.42,0,0,0,.2-1.5.53.53,0,0,0-.6-.6v-.2h2.5v.2a.6.6,0,0,0-.6.3,6.21,6.21,0,0,0-.7,2.6l-.1.6c-.2.8-.2,1.1-.3,1.4v.3c0,.4.2.5.8.5,1.1,0,1.5-.2,1.9-1l.3.1a11.14,11.14,0,0,0-.8,1.2" style="fill:#222221"/></g><g style="clip-path:url(#clip-path-7)"><path d="M87.9,383.9a.47.47,0,0,1-.5-.5.58.58,0,0,1,.6-.6.47.47,0,0,1,.5.5.65.65,0,0,1-.6.6m-1.1,4.9a.27.27,0,0,1-.3-.3,1.34,1.34,0,0,1,.1-.5c.1-.5.3-1.2.4-1.6s.2-.9.2-1,0-.2-.2-.2a.76.76,0,0,0-.4.1h-.1V385a4.51,4.51,0,0,1,1.3-.3.22.22,0,0,1,.2.2c0,.1-.1.4-.2,1.1l-.1.6c-.2.9-.3,1.3-.3,1.4a.22.22,0,0,0,.2.2,1.09,1.09,0,0,0,.5-.1v.3a2.69,2.69,0,0,1-1.3.4" style="fill:#222221"/></g><g style="clip-path:url(#clip-path-7)"><path d="M92.2,388.4a2.25,2.25,0,0,1-1.5.5q-1.2,0-1.2-.3a2.14,2.14,0,0,1,.1-.6l.5-2.2c.2-.7.3-1.3.5-2.1a3.75,3.75,0,0,0,.1-.8.22.22,0,0,0-.2-.2c-.1,0-.3.1-.4.1v-.3h.1a4.05,4.05,0,0,1,1.2-.3.22.22,0,0,1,.2.2c0,.1-.1.3-.2,1.1l-.3,1.3c-.1.4-.1.6-.2.7a2.7,2.7,0,0,1,1.6-.5.8.8,0,0,1,.9.9,3.7,3.7,0,0,1-1.2,2.5m0-3.1a2.54,2.54,0,0,0-.7.2,1,1,0,0,0-.6.5,10,10,0,0,0-.4,1.1c-.1.6-.2,1-.2,1.1s.2.3.6.3a1.39,1.39,0,0,0,1-.5,4,4,0,0,0,.7-2.1c0-.4-.2-.6-.4-.6" style="fill:#222221"/></g><g style="clip-path:url(#clip-path-7)"><path d="M95.5,387.2h-.3v.5c0,.5.2.8.5.8A3.62,3.62,0,0,0,97,388l.1.3a3.8,3.8,0,0,1-1.8.6c-.6,0-.9-.4-.9-1,0-1.6,1.1-3,2.3-3,.6,0,1,.3,1,.8,0,.8-.9,1.5-2.2,1.5m1-2c-.5,0-1,.6-1.2,1.6h.1c.9,0,1.6-.5,1.6-1.1a.47.47,0,0,0-.5-.5" style="fill:#222221"/></g><g style="clip-path:url(#clip-path-7)"><path d="M101.6,386.1h-.3v-.4c0-.2-.2-.3-.4-.3a.76.76,0,0,0-.4.2,4.32,4.32,0,0,0-.7,2.2l-.2.9a2,2,0,0,0-.8.1,4.4,4.4,0,0,0,.2-1l.2-.9c.1-.6.2-1,.2-1.2s-.1-.3-.2-.3H99l-.2.1v-.3a4.6,4.6,0,0,1,1.3-.4c.1,0,.2,0,.2.1a.6.6,0,0,0,.1.4,1.74,1.74,0,0,1,1.1-.6.86.86,0,0,1,.6.3,3.45,3.45,0,0,0-.5,1.1" style="fill:#222221"/></g><g style="clip-path:url(#clip-path-7)"><path d="M104.9,385.4h-.8l-.4,2a4.18,4.18,0,0,0-.1.7.22.22,0,0,0,.2.2.76.76,0,0,0,.4-.1h.1v.3a3.92,3.92,0,0,1-1.3.3.27.27,0,0,1-.3-.3c0-.2.1-.4.1-.7a3,3,0,0,0,.2-1l.3-1.4h-.5l.1-.3c.7-.1.9-.6,1.1-1.2l.5-.1-.2,1.1h.8Z" style="fill:#222221"/></g><g style="clip-path:url(#clip-path-7)"><path d="M107.9,384.2l-.3-.3,1.2-1.3.9.2Zm-1.1,3h-.3v.5c0,.5.2.8.5.8a3.62,3.62,0,0,0,1.3-.5l.1.3a3.8,3.8,0,0,1-1.8.6c-.6,0-.9-.4-.9-1,0-1.6,1.1-3,2.3-3,.6,0,1,.3,1,.8,0,.8-.9,1.5-2.2,1.5m1-2c-.5,0-1,.6-1.2,1.6h.1c.9,0,1.6-.5,1.6-1.1a.47.47,0,0,0-.5-.5" style="fill:#222221"/></g><g style="clip-path:url(#clip-path-7)"><path d="M124.6,381.6l-.3-.2,1.2-1.3.9.2Zm1.9,2.1h-.3v-.2c0-.5-.3-.7-1.3-.7H124c-.2.8-.3,1.5-.5,2.4h.4a2.81,2.81,0,0,0,1.1-.1.85.85,0,0,0,.7-.7h.3c-.1.6-.3,1.4-.4,1.9h-.3v-.2c0-.4-.3-.6-1.1-.6h-.8c-.1.2,0,0-.2,1.1a5.94,5.94,0,0,0-.1,1.1c0,.3.2.4.8.4,1.2,0,1.6-.2,2-1l.2.1c-.2.6-.4,1.2-.6,1.3s-.2.1-.6.1h-3.8v-.2a.6.6,0,0,0,.6-.3,1.88,1.88,0,0,0,.4-1c.1-.5.2-.8.4-1.8l.2-.8a5.42,5.42,0,0,0,.2-1.5.53.53,0,0,0-.6-.6v-.2h4.4a7.72,7.72,0,0,0-.2,1.5" style="fill:#222221"/></g><g style="clip-path:url(#clip-path-7)"><path d="M131.3,385.4h-.7a1.42,1.42,0,0,1,.2.6,1.61,1.61,0,0,1-1.7,1.6.9.9,0,0,1-.5-.1q-.3.15-.3.3c0,.1.1.2.5.3l.8.2c.8.2,1.2.5,1.2,1a2.07,2.07,0,0,1-2.3,1.8c-1.1,0-1.7-.5-1.7-1.3s.5-1.1,1.3-1.3c-.5-.2-.6-.3-.6-.4s.3-.5.9-.8a1,1,0,0,1-.4-.9,1.61,1.61,0,0,1,1.7-1.6,1.7,1.7,0,0,1,.7.1h1.3Zm-1.9-.2a1.2,1.2,0,0,0-1,1.2c0,.4.3.8.6.8.5,0,.9-.5.9-1.2.1-.5-.1-.8-.5-.8m.2,4c-.3-.1-.7-.3-1.1-.4a1.35,1.35,0,0,0-1.1,1.2,1,1,0,0,0,1.1.9,1.48,1.48,0,0,0,1.6-1.2c0-.2-.2-.4-.5-.5" style="fill:#222221"/></g><g style="clip-path:url(#clip-path-7)"><path d="M134.9,388.8c-.2,0-.2-.1-.3-.6a3.49,3.49,0,0,1-1.8.6c-.6,0-.9-.3-.9-.8a4.76,4.76,0,0,1,.6-1.8,2.48,2.48,0,0,1,2.2-1.3,6.88,6.88,0,0,1,1.3.2l-.1.2a10.78,10.78,0,0,0-.6,2.8c0,.3.1.4.2.4a4.33,4.33,0,0,1,.5-.1v.3c-.4,0-.9.1-1.1.1m-.4-3.6a1.4,1.4,0,0,0-1.1.8,3.81,3.81,0,0,0-.6,1.9c0,.3.1.5.4.5a1.74,1.74,0,0,0,1.2-.6,1.54,1.54,0,0,0,.3-.7,9.51,9.51,0,0,0,.4-1.8c-.2,0-.4-.1-.6-.1" style="fill:#222221"/></g><g style="clip-path:url(#clip-path-7)"><path d="M139.3,383.1c-.3,1.3-.6,2.7-1,4.1a3.44,3.44,0,0,0-.1.9.22.22,0,0,0,.2.2,1.09,1.09,0,0,0,.5-.1v.3a5.09,5.09,0,0,1-1.4.4.27.27,0,0,1-.3-.3,2.68,2.68,0,0,1,.2-.9c.3-1.3.6-2.7.9-3.9.1-.6.2-.8.2-.9a.22.22,0,0,0-.2-.2.6.6,0,0,0-.4.1v-.3a3.92,3.92,0,0,1,1.3-.3.22.22,0,0,1,.2.2,4.18,4.18,0,0,1-.1.7" style="fill:#222221"/></g><g style="clip-path:url(#clip-path-7)"><path d="M141.7,383.9a.47.47,0,0,1-.5-.5.65.65,0,0,1,.6-.6.47.47,0,0,1,.5.5.65.65,0,0,1-.6.6m-1.1,4.9a.27.27,0,0,1-.3-.3,1.34,1.34,0,0,1,.1-.5c.1-.5.3-1.2.4-1.6s.2-.9.2-1a.22.22,0,0,0-.2-.2.76.76,0,0,0-.4.1h-.1V385a4.51,4.51,0,0,1,1.3-.3c.2,0,.2.1.2.2a3.86,3.86,0,0,1-.2,1.1l-.1.6c-.2.9-.3,1.3-.3,1.4a.22.22,0,0,0,.2.2,1.09,1.09,0,0,0,.5-.1v.3a2.69,2.69,0,0,1-1.3.4" style="fill:#222221"/></g><g style="clip-path:url(#clip-path-7)"><path d="M145.5,385.4h-.8l-.4,2a4.18,4.18,0,0,0-.1.7.22.22,0,0,0,.2.2.76.76,0,0,0,.4-.1h.1v.3a3.92,3.92,0,0,1-1.3.3.27.27,0,0,1-.3-.3,2,2,0,0,1,.1-.7,3,3,0,0,0,.2-1l.3-1.4h-.5l.1-.3c.7-.1.9-.6,1.1-1.2l.5-.1-.2,1.1h.8Z" style="fill:#222221"/></g><g style="clip-path:url(#clip-path-7)"><path d="M148.5,384.2l-.3-.3,1.2-1.3.9.2Zm-1.1,3h-.3v.5c0,.5.2.8.5.8a3.62,3.62,0,0,0,1.3-.5l.1.3a3.8,3.8,0,0,1-1.8.6c-.6,0-.9-.4-.9-1,0-1.6,1.1-3,2.3-3,.6,0,1,.3,1,.8,0,.8-.9,1.5-2.2,1.5m1-2c-.5,0-1,.6-1.2,1.6h.1c.9,0,1.6-.5,1.6-1.1a.47.47,0,0,0-.5-.5" style="fill:#222221"/></g><g style="clip-path:url(#clip-path-7)"><path d="M166.9,383.7h-.3v-.2a.76.76,0,0,0-.2-.5c-.2-.2-.5-.2-1.3-.2h-.7c-.2.8-.3,1.6-.5,2.4h.6c1.1,0,1.3-.1,1.5-.7h.3a10.62,10.62,0,0,0-.4,1.9h-.3v-.2a.52.52,0,0,0-.2-.4,1.69,1.69,0,0,0-.9-.2h-.6l-.1.7a11.63,11.63,0,0,0-.3,1.6.53.53,0,0,0,.6.6v.2h-2.5v-.2a.6.6,0,0,0,.6-.3,1.88,1.88,0,0,0,.4-1c.1-.5.2-.8.4-1.8l.2-.8c.1-.8.2-1.2.2-1.5a.53.53,0,0,0-.6-.6v-.2h4.3a7.84,7.84,0,0,1-.2,1.4" style="fill:#222221"/></g><g style="clip-path:url(#clip-path-7)"><path d="M170.2,386.1h-.3v-.4c0-.2-.2-.3-.4-.3a.76.76,0,0,0-.4.2,4.32,4.32,0,0,0-.7,2.2l-.2.9a2,2,0,0,0-.8.1,4.4,4.4,0,0,0,.2-1l.2-.9c.1-.6.2-1,.2-1.2s-.1-.3-.2-.3h-.2l-.2.1v-.3a4.6,4.6,0,0,1,1.3-.4c.1,0,.2,0,.2.1s.1.3.1.4a1.74,1.74,0,0,1,1.1-.6.86.86,0,0,1,.6.3,3.45,3.45,0,0,0-.5,1.1" style="fill:#222221"/></g><g style="clip-path:url(#clip-path-7)"><path d="M174.1,388.8c-.2,0-.2-.1-.3-.6a3.8,3.8,0,0,1-1.8.6c-.6,0-.9-.3-.9-.8a4.76,4.76,0,0,1,.6-1.8,2.48,2.48,0,0,1,2.2-1.3,6.88,6.88,0,0,1,1.3.2v.2a10.78,10.78,0,0,0-.6,2.8c0,.3.1.4.2.4a4.33,4.33,0,0,1,.5-.1v.3c-.6,0-1,.1-1.2.1m-.5-3.6a1.4,1.4,0,0,0-1.1.8,3.81,3.81,0,0,0-.6,1.9c0,.3.1.5.4.5a1.74,1.74,0,0,0,1.2-.6,1.54,1.54,0,0,0,.3-.7,9.51,9.51,0,0,0,.4-1.8c-.2,0-.4-.1-.6-.1" style="fill:#222221"/></g><g style="clip-path:url(#clip-path-7)"><path d="M178.7,385.4h-.8l-.4,2a4.18,4.18,0,0,0-.1.7.22.22,0,0,0,.2.2,1.34,1.34,0,0,0,.5-.1h.1v.3a3.92,3.92,0,0,1-1.3.3.27.27,0,0,1-.3-.3,2,2,0,0,1,.1-.7,3,3,0,0,0,.2-1l.3-1.4h-.5l.1-.3c.7-.1.9-.6,1.1-1.2l.5-.1-.3,1.1h.8Z" style="fill:#222221"/></g><g style="clip-path:url(#clip-path-7)"><path d="M180.6,387.2h-.3c0,.2-.1.3-.1.5,0,.5.2.8.5.8a3.62,3.62,0,0,0,1.3-.5l.1.3a3.8,3.8,0,0,1-1.8.6c-.6,0-.9-.4-.9-1,0-1.6,1.1-3,2.4-3,.6,0,1,.3,1,.8,0,.8-.9,1.5-2.2,1.5m1-2c-.5,0-1,.6-1.2,1.6h.1c.9,0,1.6-.5,1.6-1.1a.47.47,0,0,0-.5-.5" style="fill:#222221"/></g><g style="clip-path:url(#clip-path-7)"><path d="M186.7,386.1h-.3v-.4c0-.2-.2-.3-.4-.3a.52.52,0,0,0-.4.2,4.32,4.32,0,0,0-.7,2.2l-.2.9a2,2,0,0,0-.8.1,4.4,4.4,0,0,0,.2-1l.2-.9c.1-.6.2-1,.2-1.2s-.1-.3-.2-.3h-.2l-.2.1v-.3a4.6,4.6,0,0,1,1.3-.4c.1,0,.2,0,.2.1s.1.3.1.4a1.74,1.74,0,0,1,1.1-.6.86.86,0,0,1,.6.3,3.45,3.45,0,0,0-.5,1.1" style="fill:#222221"/></g><g style="clip-path:url(#clip-path-7)"><path d="M190.6,388.9a.27.27,0,0,1-.3-.3,2,2,0,0,1,.2-.8l.1-.4a12.27,12.27,0,0,0,.4-1.8.22.22,0,0,0-.2-.2,1.33,1.33,0,0,0-.7.3,4.35,4.35,0,0,0-.7.6,2.19,2.19,0,0,0-.3.9,6.09,6.09,0,0,0-.3,1.7,2.77,2.77,0,0,0-.9.1c.2-.7.3-1.3.5-2a3.86,3.86,0,0,0,.2-1.1c0-.2-.1-.3-.2-.3a1.34,1.34,0,0,0-.5.1v-.3a4.05,4.05,0,0,1,1.2-.3c.2,0,.3.1.3.6v.1a4.8,4.8,0,0,1,2-.7c.3,0,.4.1.4.3a8.67,8.67,0,0,1-.3,1.3,8.11,8.11,0,0,1-.3,1.1,1.76,1.76,0,0,0-.1.6.22.22,0,0,0,.2.2,1.09,1.09,0,0,0,.5-.1v.3a4.12,4.12,0,0,0-1.2.1" style="fill:#222221"/></g><g style="clip-path:url(#clip-path-7)"><path d="M194.7,383.9a.47.47,0,0,1-.5-.5.65.65,0,0,1,.6-.6.47.47,0,0,1,.5.5.65.65,0,0,1-.6.6m-1,4.9a.27.27,0,0,1-.3-.3,1.34,1.34,0,0,1,.1-.5c.1-.5.3-1.2.4-1.6s.2-.9.2-1a.22.22,0,0,0-.2-.2.76.76,0,0,0-.4.1h-.1V385a4.51,4.51,0,0,1,1.3-.3.22.22,0,0,1,.2.2c0,.1-.1.4-.2,1.1l-.1.6c-.2.9-.3,1.3-.3,1.4a.22.22,0,0,0,.2.2,1.09,1.09,0,0,0,.5-.1v.3a3,3,0,0,1-1.3.4" style="fill:#222221"/></g><g style="clip-path:url(#clip-path-7)"><path d="M198.5,385.4h-.8l-.4,2a4.18,4.18,0,0,0-.1.7.22.22,0,0,0,.2.2,1.34,1.34,0,0,0,.5-.1h.1v.3a3.92,3.92,0,0,1-1.3.3.27.27,0,0,1-.3-.3,2,2,0,0,1,.1-.7,3,3,0,0,0,.2-1l.3-1.4h-.5l.1-.3c.7-.1.9-.6,1.1-1.2l.5-.1-.2,1.1h.8Z" style="fill:#222221"/></g><g style="clip-path:url(#clip-path-7)"><path d="M201.5,384.2l-.3-.3,1.2-1.3.9.2Zm-1,3h-.3v.5c0,.5.2.8.5.8a3.62,3.62,0,0,0,1.3-.5l.1.3a3.8,3.8,0,0,1-1.8.6c-.6,0-.9-.4-.9-1,0-1.6,1.1-3,2.4-3,.6,0,1,.3,1,.8a2.19,2.19,0,0,1-2.3,1.5m.9-2c-.5,0-1,.6-1.2,1.6h.1c.9,0,1.6-.5,1.6-1.1a.47.47,0,0,0-.5-.5" style="fill:#222221"/></g><g style="clip-path:url(#clip-path-7)"><path d="M155.9,387a1.2,1.2,0,1,0,0-2.4,1.2,1.2,0,0,0,0,2.4" style="fill:#222221"/></g><g style="clip-path:url(#clip-path-7)"><path d="M115.3,387a1.2,1.2,0,1,0-1.2-1.2,1.29,1.29,0,0,0,1.2,1.2" style="fill:#222221"/></g><g style="clip-path:url(#clip-path-7)"><line x1="81.3" y1="393.1" x2="202.7" y2="393.1" style="fill:none;stroke:#222221;stroke-width:0.9409999847412109px"/></g><g style="clip-path:url(#clip-path-7)"><polygon points="81.4 376.6 81.4 335.7 203 335.8 203 376.6 81.4 376.6" style="fill:#fff"/></g><g style="clip-path:url(#clip-path-7)"><path d="M110.2,363.8c.1-.2.2-.2.3-.4s0-.2-.1-.2a1.12,1.12,0,0,0-.7.8c0,.1.1.1.2.1s.1-.1.3-.3" style="fill:#fff"/></g><g style="clip-path:url(#clip-path-7)"><path d="M160.7,352.8a8.55,8.55,0,0,0-1.6,0,11.69,11.69,0,0,0-2,.6,6.08,6.08,0,0,1,1.8-.9,7.37,7.37,0,0,1,1.4-.4,3,3,0,0,1,1.6-.1c.5.2,1.2.2,1.3.5.2.6-.3,1.1-.8,1.5-.1.2.3.3.3.5a.71.71,0,0,1-.6.3c-.2.1-.4.4-.6.6.2,0,0,.3.2.3-.4.5.2,1.4-.4,1.6a3.75,3.75,0,0,1-2.1,0c.4-.1.8.1,1.1-.3v-.6c0-.1-.1-.1-.2-.1a.31.31,0,0,1-.2.1.45.45,0,0,0-.3-.4,1.54,1.54,0,0,1-1.4-.6,1.18,1.18,0,0,1,.8-.1c.3,0,.2-.5.5-.6h.3c.6-.7,1.7-.9,1.9-1.7,0-.1-.6-.1-1-.2" style="fill:#9b9a9a"/></g><g style="clip-path:url(#clip-path-7)"><path d="M127.7,375.8a12.2,12.2,0,0,0,1.7-.7v.2c1.4-.6,2.4-1.8,3.8-2.2.1,0,.3.2.5.1.8-.7,1.8-1.6,3-1.4,0,.1,0,.2.1.2s.2,0,.2-.1a7.63,7.63,0,0,1-1.1.8c-.1.1,0,.2.1.2.5-.2.7-.6,1.2-.7-.1.1-.1.3-.2.4a26.81,26.81,0,0,0-4.5,4.4h-2.9c0-.1,0-.2-.1-.2-3.3.3-6.4.2-9.7.2,1.9-.3,3.7-.8,5.6-1a19.53,19.53,0,0,0,2.3-.2" style="fill:#2b4490"/></g><g style="clip-path:url(#clip-path-7)"><path d="M81.4,335.8c0,3.6.1,7.2,0,10.9-.3,10.1.2,20.1,0,30.3,9.3,0,18.4.2,27.7,0,.7-1.5,2.6-1.3,4-1.9.5-.2,1,.1,1.5,0a1.08,1.08,0,0,1,.8.2c-1,.6-1.9,1.2-2.9,1.8a14.2,14.2,0,0,0,4.6,0,11.3,11.3,0,0,0,2.2-1.1,14.17,14.17,0,0,0-1.8.8c-.1,0-.4.1-.4-.1s.4-.3.6-.5c.1,0,.2,0,.2.1,3-2.3,7-1.8,10.5-3,.3-.2.5-.4.8-.6.5-.2.8-.6,1.4-.9a4.74,4.74,0,0,0,1.6-2.1.35.35,0,0,0-.1-.2,15.3,15.3,0,0,1-4.1,3.1c-1.9,1-4.1.8-6.1,1.1.1-.2.3-.2.5-.2,0-.3.2-.4.4-.6h.3c.1,0,.1-.2.2-.2s.5-.1.4-.1c-.3-.4-.8.3-1.3,0,.2-.2.1-.5.3-.6h.4a.7.7,0,0,1,.2-.4c1.4-.8,2.7-1.5,4-2.2-.3,0-.5.3-.7.1.2,0,0-.3.2-.3,1-.3,1.9-.8,2.9-1.2-.4,0-.7.3-1,0,.2-.1.3-.3.5-.3v-.3c0-.1.1-.1.2-.1a.35.35,0,0,1-.2-.1c.1-.2.4-.1.6-.3-.1,0-.3,0-.3-.1a1.74,1.74,0,0,1,1.2-.6c-.1-.2-.4,0-.4-.2s.1-.1.2-.1h-.2c-.2-.1-.1-.3-.1-.4a4.92,4.92,0,0,0,.8-2.2c-.1,0-.2,0-.2-.1A7.93,7.93,0,0,1,127,365h-.5a1.81,1.81,0,0,1-1.6-.1,7.05,7.05,0,0,1-.9-.7,12,12,0,0,0-2.3-1.1,21.41,21.41,0,0,0-7.1-1,11.46,11.46,0,0,1,3.3-.9,13.06,13.06,0,0,1,4.7-.9,2.72,2.72,0,0,0-.9,0,14.38,14.38,0,0,0-4,.6,26.81,26.81,0,0,1-2.7.7c-.6.2-.8.7-1.5.7V362a5.24,5.24,0,0,1,3.5-2.3,16,16,0,0,1,4.9.2c1.2.1,2.3.4,3.5.6.5,0,.6.8.9.8.6.2,1.1,0,1.7.4,0-.2-.1-.4,0-.6.4-.4.8.1,1.2-.1.7-.5-.6-1.3-1-1.9a.35.35,0,0,1,.1-.2,9.62,9.62,0,0,0,2.2,1.8c.5.2,1.6.5,1.4-.1a18.6,18.6,0,0,0-2.1-2.8v-.4c-.2,0-.2-.1-.3-.2v-.4c-.4-.2-.3-.6-.5-.8-.3-.5-.1-1.1-.3-1.7a9.36,9.36,0,0,1-.4-1.6c-.3-1.6-.6-3-.8-4.5-.2-1.8,1-3.1,1.9-4.7a8.2,8.2,0,0,1,2.6-3,8.58,8.58,0,0,1,1.8-3c.8-1,2.1-1.4,3.2-2m-23,26.8c.1,0,.3,0,.3.1a.88.88,0,0,1-.7.9,9,9,0,0,1,2.2.6c-.1.2-.3.1-.4.1.5.3,1,.1,1.5.5-.3.3-.6,0-.8,0,2.9.8,5.9,1.5,8.3,3.3a23.62,23.62,0,0,1-6.4,1.9,1.48,1.48,0,0,1-.7-.1c0,.1,0,.3-.1.3-.4,0-.7,0-.9.2a1.05,1.05,0,0,1-1.2,0c-.1-.1.3,0,.4-.2h-.8c-.1,0-.1-.1-.1-.2-.5.1-1,.3-1.5.4-.7.2-1.2.7-1.9.8-1,.4-1.9,1.2-3,1.6-.1,0-.1-.1-.1-.2.1-.3.5-.4.7-.6,0-.1,0-.2-.1-.2a15.46,15.46,0,0,1,2.7-2.4v-.3c.3-.4.7-.6.9-1a1.8,1.8,0,0,1,.9-.8c-.1-.1-.3-.1-.3-.3-.4,0-.7.2-1.1-.1a.86.86,0,0,1,.6-.3c-.1,0-.2,0-.2-.1s.2-.4.5-.5a2.1,2.1,0,0,0,1.1-.4c-.6-.1-1.4.2-2-.2a3.92,3.92,0,0,1,2.2-2.8m1.2-3.7a.37.37,0,0,1-.3-.1.37.37,0,0,0,.1-.3c-.9,1-2.2,1.5-3,2.7-.6.9-.9,2.1-2.1,2.4-.4.1.1-.3-.1-.2a31,31,0,0,0-7.1,6.4.35.35,0,0,1-.1-.2,41,41,0,0,0,3-4.7,13,13,0,0,0,3.1-2.6,18.48,18.48,0,0,1,5.2-4.1,3.32,3.32,0,0,1,2.4.1c-.2.4-.7.3-1.1.6" style="fill:#2b4490"/></g><g style="clip-path:url(#clip-path-7)"><path d="M164.3,371.1c.2-.7.5-1.4.1-2-.6-.8.6-1.1.9-1.7s-.2-.7-.3-1.2c-.1-.2-.5-.1-.7-.4.7-.3,1.7-.8,1.2-1.7-.3-.5-.7-1.2-.2-1.7.7-.4,1.7-.3,1.9-.9.5-1.1-.6-2-1.1-3a13,13,0,0,0-1-1.5,7.5,7.5,0,0,1-1-2c-.3-.7.1-1.4.1-2.1a12.34,12.34,0,0,0-.7-4.2,15.19,15.19,0,0,1-.6-2,2.22,2.22,0,0,0-.5-1.1.63.63,0,0,1,0-.6c.4-.3.7-.6,1.1-.9a1,1,0,0,0-.4-1.4c-.6-.3-.6.7-1,.8h-.3c-.1-.3.1-.4.3-.6,0-.1,0-.3-.1-.3-.4,0-.7-.1-.8-.3a7.61,7.61,0,0,0-3.6-2.5,4.25,4.25,0,0,0,1.1.2,3.06,3.06,0,0,0,1.9-.2c.5-.2.6-.9.7-1.4s-.1-.9-.3-1.2a5.81,5.81,0,0,0-1.9-1.6h44c.1,13.7-.1,27.5-.2,41.2-17.4.3-34.7,0-52.1,0A9.12,9.12,0,0,1,154,372a5,5,0,0,1,1.3-.4c1.6,0,3.2.5,4.7.6a1.42,1.42,0,0,1,.6.2,3.67,3.67,0,0,0,1.8-.1,2,2,0,0,0,1.9-1.2" style="fill:#c22126"/></g><g style="clip-path:url(#clip-path-7)"><path d="M117.6,370.8c-.4.2-1,.2-1.1.6-.1.2.3.1.5.1.6-.3,1.4,0,2-.6-.2-.2-.5-.1-.7-.4a4.88,4.88,0,0,0-.7.3" style="fill:#fff"/></g><g style="isolation:isolate"><path d="M84.24,280v4.88a5.51,5.51,0,0,0,.17,1.77,1.23,1.23,0,0,0,.58.59,3.9,3.9,0,0,0,1.57.22v.47H78v-.47a3.66,3.66,0,0,0,1.57-.23,1.25,1.25,0,0,0,.58-.58,5.51,5.51,0,0,0,.17-1.77V273.59a5.55,5.55,0,0,0-.17-1.78,1.23,1.23,0,0,0-.58-.59A4,4,0,0,0,78,271v-.48h7.77a16.35,16.35,0,0,1,4.44.44,4.45,4.45,0,0,1,2.29,1.61,4.38,4.38,0,0,1,.89,2.75,4.18,4.18,0,0,1-1.33,3.18,5.49,5.49,0,0,1-2.38,1.2l4,5.89A9.27,9.27,0,0,0,94.82,287a2.05,2.05,0,0,0,1.17.44v.47H90.73L85.34,280Zm0-8.53v7.62h.7a7.53,7.53,0,0,0,2.57-.33,2.6,2.6,0,0,0,1.34-1.18,4.51,4.51,0,0,0,.48-2.22,4.14,4.14,0,0,0-.89-2.94,3.83,3.83,0,0,0-2.88-.95Z"/><path d="M102.65,271.53v7.09H103a2.6,2.6,0,0,0,2.3-1,6.57,6.57,0,0,0,.91-3.07h.47v9.11h-.47a6.79,6.79,0,0,0-.62-2.44,2.74,2.74,0,0,0-1.1-1.28,4.2,4.2,0,0,0-1.83-.32v4.9a7.23,7.23,0,0,0,.12,1.76,1,1,0,0,0,.44.52,1.93,1.93,0,0,0,1,.21h1a5.87,5.87,0,0,0,3.76-1.13,6.32,6.32,0,0,0,2-3.44h.45l-.75,5.53H96.28v-.47h.55a2.2,2.2,0,0,0,1.17-.27,1.18,1.18,0,0,0,.5-.62,5.56,5.56,0,0,0,.13-1.62V273.51a9.72,9.72,0,0,0-.06-1.45,1.17,1.17,0,0,0-.46-.69,2,2,0,0,0-1.28-.36h-.55v-.48h14v5.15h-.46a6.47,6.47,0,0,0-1-2.71,3.72,3.72,0,0,0-1.83-1.21,9.71,9.71,0,0,0-2.59-.23Zm5.28-6.94L103.85,269h-1.06l1.43-4.45Z"/><path d="M130,270.13v6.14h-.45a7.88,7.88,0,0,0-2.48-3.83,5.71,5.71,0,0,0-3.61-1.31,4.56,4.56,0,0,0-3.12,1.1,6,6,0,0,0-1.77,3.06,16,16,0,0,0-.52,4,15.23,15.23,0,0,0,.57,4.39,5,5,0,0,0,1.83,2.77,5.12,5.12,0,0,0,3,.89,5.88,5.88,0,0,0,1.23-.14,8.78,8.78,0,0,0,1.31-.39v-3.62a4,4,0,0,0-.14-1.33,1.27,1.27,0,0,0-.56-.54,2.07,2.07,0,0,0-1-.25h-.43v-.47H132v.47a3.37,3.37,0,0,0-1.28.27,1.3,1.3,0,0,0-.57.66,3.89,3.89,0,0,0-.11,1.19v3.62a15.73,15.73,0,0,1-3.33,1.12,17,17,0,0,1-3.6.38,10.08,10.08,0,0,1-4-.67,9.79,9.79,0,0,1-2.77-1.77,8.39,8.39,0,0,1-1.89-2.47,9.61,9.61,0,0,1,1.79-10.6,8.93,8.93,0,0,1,6.67-2.71,11,11,0,0,1,2.25.21,11.37,11.37,0,0,1,1.76.58,7.3,7.3,0,0,0,1.43.48,1,1,0,0,0,.64-.26,2.44,2.44,0,0,0,.55-1Z"/><path d="M141.51,287.46v.47h-8.74v-.47h.55a2.27,2.27,0,0,0,1.18-.27,1.21,1.21,0,0,0,.49-.62,5.56,5.56,0,0,0,.13-1.62V273.51a6.05,6.05,0,0,0-.13-1.67,1.21,1.21,0,0,0-.55-.58,2.11,2.11,0,0,0-1.12-.25h-.55v-.48h8.74V271H141a2.2,2.2,0,0,0-1.17.27,1.17,1.17,0,0,0-.51.61,5.65,5.65,0,0,0-.13,1.62V285a5.53,5.53,0,0,0,.14,1.67,1.33,1.33,0,0,0,.55.59,2.24,2.24,0,0,0,1.12.25Z"/><path d="M151.85,270.29a8.16,8.16,0,0,1,6.49,2.42,8.89,8.89,0,0,1,2.5,6.46A9.52,9.52,0,0,1,159,285a8.16,8.16,0,0,1-7,3.34,8.31,8.31,0,0,1-7-3.18,9.47,9.47,0,0,1-1.95-6,8.85,8.85,0,0,1,2.53-6.46A7.92,7.92,0,0,1,151.85,270.29Zm.15.82a3.76,3.76,0,0,0-3.49,2.44,13.44,13.44,0,0,0-1,5.74q0,4.45,1.51,6.59a3.37,3.37,0,0,0,2.93,1.49,3.41,3.41,0,0,0,2.12-.65,5.18,5.18,0,0,0,1.69-2.62,15.18,15.18,0,0,0,.61-4.7,16.31,16.31,0,0,0-.62-5.17,5.14,5.14,0,0,0-1.57-2.42A3.61,3.61,0,0,0,152,271.11Z"/><path d="M168,270.53l8.25,10.79v-7.48a3.66,3.66,0,0,0-.43-2.12,2.36,2.36,0,0,0-2-.71v-.48h5.53V271a4,4,0,0,0-1.43.36,1.47,1.47,0,0,0-.56.73,5,5,0,0,0-.21,1.74v14.49h-.42l-11.31-14.49V284.9a2.5,2.5,0,0,0,.66,2,2.38,2.38,0,0,0,1.51.53h.4v.47H162.1v-.47a2.63,2.63,0,0,0,1.92-.59,2.87,2.87,0,0,0,.54-2V272.62l-.35-.46a3.5,3.5,0,0,0-.94-.91,2.7,2.7,0,0,0-1.17-.24v-.48Z"/><path d="M195.41,283H189.5l-.7,1.69a3.94,3.94,0,0,0-.35,1.4,1.17,1.17,0,0,0,.57,1.08,4.55,4.55,0,0,0,1.64.31v.47H185.1v-.47a2.52,2.52,0,0,0,1.48-.78,10.66,10.66,0,0,0,1.43-2.63l6-13.88h.23l6,14.27a8.85,8.85,0,0,0,1.42,2.55,1.93,1.93,0,0,0,1.19.47v.47h-8.09v-.47h.33a2.45,2.45,0,0,0,1.37-.29.68.68,0,0,0,.27-.59,1.6,1.6,0,0,0-.08-.47,9.22,9.22,0,0,0-.37-1Zm-.42-1-2.49-6-2.57,6Z"/><path d="M220,270.13v6h-.48a6.48,6.48,0,0,0-2-3.61,5,5,0,0,0-3.35-1.26,4.79,4.79,0,0,0-2.87.94,5.47,5.47,0,0,0-1.92,2.45,11.61,11.61,0,0,0-.77,4.31,14.91,14.91,0,0,0,.57,4.25,5.64,5.64,0,0,0,1.77,2.9,4.84,4.84,0,0,0,3.13,1,5.94,5.94,0,0,0,2.9-.72,10.19,10.19,0,0,0,2.76-2.47v1.5a9.1,9.1,0,0,1-2.92,2.21,8.6,8.6,0,0,1-3.56.69,9.84,9.84,0,0,1-4.76-1.12,7.68,7.68,0,0,1-3.2-3.21,9.12,9.12,0,0,1-1.13-4.45,9.55,9.55,0,0,1,1.25-4.72,8.93,8.93,0,0,1,3.38-3.46,8.79,8.79,0,0,1,4.52-1.24,9.9,9.9,0,0,1,3.72.8,5.45,5.45,0,0,0,1.45.46.91.91,0,0,0,.68-.3,1.71,1.71,0,0,0,.38-1Z"/><path d="M231.89,283H226l-.7,1.69a3.94,3.94,0,0,0-.35,1.4,1.17,1.17,0,0,0,.57,1.08,4.55,4.55,0,0,0,1.64.31v.47h-5.56v-.47a2.52,2.52,0,0,0,1.48-.78,10.66,10.66,0,0,0,1.43-2.63l6-13.88h.23l6,14.27a8.85,8.85,0,0,0,1.42,2.55,1.93,1.93,0,0,0,1.19.47v.47h-8.09v-.47h.33a2.45,2.45,0,0,0,1.37-.29.68.68,0,0,0,.27-.59,1.6,1.6,0,0,0-.08-.47,9.22,9.22,0,0,0-.37-1Zm-.42-1L229,276l-2.57,6Z"/><path d="M240,287.93v-.47h.56a2.13,2.13,0,0,0,1.11-.24,1.52,1.52,0,0,0,.58-.65,6.63,6.63,0,0,0,.11-1.62V273.51a5.9,5.9,0,0,0-.14-1.67,1.21,1.21,0,0,0-.55-.58,2.07,2.07,0,0,0-1.11-.25H240v-.48h7.49a11.47,11.47,0,0,1,4.82.85,7.23,7.23,0,0,1,3.39,3.14,9.86,9.86,0,0,1,1.15,4.76,9.67,9.67,0,0,1-.57,3.38,8,8,0,0,1-1.47,2.56,7.14,7.14,0,0,1-2.07,1.61,11.05,11.05,0,0,1-2.88.95,13.43,13.43,0,0,1-2.37.15Zm6.38-16.41v13.57a4.87,4.87,0,0,0,.1,1.33.7.7,0,0,0,.33.37,1.92,1.92,0,0,0,1,.19,3.71,3.71,0,0,0,3.15-1.46c1-1.32,1.48-3.36,1.48-6.14a11.81,11.81,0,0,0-1-5.34,4.41,4.41,0,0,0-2.05-2.14A7.85,7.85,0,0,0,246.33,271.52Z"/><path d="M264.74,271.53v7.09h.33a2.62,2.62,0,0,0,2.31-1,6.57,6.57,0,0,0,.91-3.07h.47v9.11h-.47a7,7,0,0,0-.62-2.44,2.8,2.8,0,0,0-1.1-1.28,4.2,4.2,0,0,0-1.83-.32v4.9a7.23,7.23,0,0,0,.12,1.76,1,1,0,0,0,.44.52,1.91,1.91,0,0,0,1,.21h1a5.89,5.89,0,0,0,3.76-1.13,6.31,6.31,0,0,0,2-3.44h.46l-.75,5.53H258.37v-.47h.55a2.23,2.23,0,0,0,1.17-.27,1.12,1.12,0,0,0,.49-.62,5.08,5.08,0,0,0,.14-1.62V273.51a9.72,9.72,0,0,0-.06-1.45,1.22,1.22,0,0,0-.46-.69,2,2,0,0,0-1.28-.36h-.55v-.48h14v5.15h-.47a6.35,6.35,0,0,0-1-2.71,3.72,3.72,0,0,0-1.83-1.21,9.76,9.76,0,0,0-2.59-.23Zm5.28-6.94L265.94,269h-1.06l1.43-4.45Z"/><path d="M286.74,282l4.54-11.47h6.81V271h-.54a2.28,2.28,0,0,0-1.19.27,1.25,1.25,0,0,0-.49.6,5.34,5.34,0,0,0-.14,1.6V285a5.9,5.9,0,0,0,.14,1.67,1.28,1.28,0,0,0,.55.59,2.28,2.28,0,0,0,1.13.25h.54v.47h-8.73v-.47h.54a2.24,2.24,0,0,0,1.18-.27,1.28,1.28,0,0,0,.5-.62,5.56,5.56,0,0,0,.13-1.62V272.06l-6.41,15.87H285l-6.51-15.76v12.26a11.69,11.69,0,0,0,.06,1.58,1.85,1.85,0,0,0,.7,1,2.81,2.81,0,0,0,1.68.41v.47h-5.72v-.47h.17a2.75,2.75,0,0,0,1-.19,1.71,1.71,0,0,0,.73-.53,2.66,2.66,0,0,0,.38-.94c0-.09,0-.53,0-1.31v-11a5.92,5.92,0,0,0-.13-1.65,1.27,1.27,0,0,0-.56-.57,2.14,2.14,0,0,0-1.12-.25h-.53v-.48H282Z"/><path d="M307.79,287.46v.47h-8.74v-.47h.55a2.27,2.27,0,0,0,1.18-.27,1.21,1.21,0,0,0,.49-.62,5.41,5.41,0,0,0,.14-1.62V273.51a5.9,5.9,0,0,0-.14-1.67,1.21,1.21,0,0,0-.55-.58,2.11,2.11,0,0,0-1.12-.25h-.55v-.48h8.74V271h-.55a2.2,2.2,0,0,0-1.17.27,1.21,1.21,0,0,0-.51.61,5.65,5.65,0,0,0-.13,1.62V285a5.53,5.53,0,0,0,.14,1.67,1.33,1.33,0,0,0,.55.59,2.24,2.24,0,0,0,1.12.25Z"/><path d="M320.45,288.08a5,5,0,0,0,1.76,2.57,5,5,0,0,0,3,.86,5.63,5.63,0,0,0,1.05-.1v.78a13.67,13.67,0,0,1-3.33.49,7.36,7.36,0,0,1-4.1-1.17,7,7,0,0,1-2.72-3.43,8.09,8.09,0,0,1-4.89-3.09,9.2,9.2,0,0,1-1.86-5.78,8.92,8.92,0,0,1,2.52-6.49,9.13,9.13,0,0,1,12.75,0,8.92,8.92,0,0,1,2.5,6.48,9.22,9.22,0,0,1-2,5.88A7.57,7.57,0,0,1,320.45,288.08Zm-2.2-17a3.75,3.75,0,0,0-3.43,2.4,13.1,13.1,0,0,0-1,5.73q0,4.47,1.52,6.62a3.6,3.6,0,0,0,5.84,0c1-1.41,1.52-3.53,1.52-6.36a14.14,14.14,0,0,0-.95-6.06A3.76,3.76,0,0,0,318.25,271.11Z"/><path d="M328.61,270.53h8.63V271h-.43a3,3,0,0,0-1.34.21,1.15,1.15,0,0,0-.51.58,6.18,6.18,0,0,0-.16,1.86v8.52a9.1,9.1,0,0,0,.34,3.09,2.88,2.88,0,0,0,1.12,1.26,3.5,3.5,0,0,0,2,.5,4.12,4.12,0,0,0,2.31-.63,3.85,3.85,0,0,0,1.43-1.75,11,11,0,0,0,.48-3.89v-7.1a4.19,4.19,0,0,0-.24-1.67,1.41,1.41,0,0,0-.59-.69A3.49,3.49,0,0,0,340,271v-.48h5.79V271h-.35a2.2,2.2,0,0,0-1.17.29,1.68,1.68,0,0,0-.68.89,4.76,4.76,0,0,0-.16,1.47v6.61a17.84,17.84,0,0,1-.39,4.43,5,5,0,0,1-1.89,2.5,6.64,6.64,0,0,1-4.11,1.14,7.57,7.57,0,0,1-3.35-.6,5,5,0,0,1-2.28-2.11,7.42,7.42,0,0,1-.67-3.45v-8.52a6.09,6.09,0,0,0-.16-1.86,1.25,1.25,0,0,0-.55-.59,3.36,3.36,0,0,0-1.46-.2Z"/><path d="M353.14,271.53v7.09h.33a2.61,2.61,0,0,0,2.31-1,6.57,6.57,0,0,0,.91-3.07h.47v9.11h-.47a7,7,0,0,0-.62-2.44,2.8,2.8,0,0,0-1.1-1.28,4.2,4.2,0,0,0-1.83-.32v4.9a7.23,7.23,0,0,0,.12,1.76,1,1,0,0,0,.44.52,1.93,1.93,0,0,0,1,.21h1a5.89,5.89,0,0,0,3.76-1.13,6.38,6.38,0,0,0,2-3.44H362l-.75,5.53H346.77v-.47h.55a2.2,2.2,0,0,0,1.17-.27,1.18,1.18,0,0,0,.5-.62,5.56,5.56,0,0,0,.13-1.62V273.51a9.72,9.72,0,0,0-.06-1.45,1.17,1.17,0,0,0-.46-.69,2,2,0,0,0-1.28-.36h-.55v-.48h14v5.15h-.47a6.35,6.35,0,0,0-1-2.71,3.72,3.72,0,0,0-1.83-1.21,9.76,9.76,0,0,0-2.59-.23Z"/></g><g style="isolation:isolate"><path d="M63.82,310H57.91l-.7,1.69a3.94,3.94,0,0,0-.35,1.4,1.17,1.17,0,0,0,.57,1.08,4.55,4.55,0,0,0,1.64.31v.47H53.51v-.47a2.52,2.52,0,0,0,1.48-.78,10.66,10.66,0,0,0,1.43-2.63l6-13.88h.23l6,14.27A8.85,8.85,0,0,0,70.08,314a1.93,1.93,0,0,0,1.19.47v.47H63.18v-.47h.33a2.45,2.45,0,0,0,1.37-.29.68.68,0,0,0,.27-.59,1.6,1.6,0,0,0-.08-.47,9.22,9.22,0,0,0-.37-1Zm-.42-1-2.49-6-2.57,6Z"/><path d="M72.14,297.53h8.63V298h-.43a3,3,0,0,0-1.34.21,1.15,1.15,0,0,0-.51.58,6.18,6.18,0,0,0-.16,1.86v8.52a8.85,8.85,0,0,0,.34,3.09,2.88,2.88,0,0,0,1.12,1.26,3.5,3.5,0,0,0,2,.5,4.12,4.12,0,0,0,2.31-.63,3.92,3.92,0,0,0,1.43-1.75,11,11,0,0,0,.48-3.89v-7.1a4.19,4.19,0,0,0-.24-1.67,1.41,1.41,0,0,0-.59-.69,3.49,3.49,0,0,0-1.57-.29v-.48h5.79V298H89a2.2,2.2,0,0,0-1.17.29,1.68,1.68,0,0,0-.68.89,4.76,4.76,0,0,0-.16,1.47v6.61a17.84,17.84,0,0,1-.39,4.43,5,5,0,0,1-1.89,2.5,6.64,6.64,0,0,1-4.11,1.14,7.57,7.57,0,0,1-3.35-.6A5,5,0,0,1,75,312.63a7.42,7.42,0,0,1-.67-3.45v-8.52a6.09,6.09,0,0,0-.16-1.86,1.25,1.25,0,0,0-.55-.59,3.36,3.36,0,0,0-1.46-.2Z"/><path d="M107.77,297.53V298a2.7,2.7,0,0,0-1.63,1,16,16,0,0,0-1.54,3l-5.76,13.29h-.41L92.7,301.5a17.18,17.18,0,0,0-1.39-2.94A1.89,1.89,0,0,0,90,298v-.48h8V298h-.27a2.71,2.71,0,0,0-1.48.28.64.64,0,0,0-.28.56,1.74,1.74,0,0,0,.1.55c.06.21.28.77.66,1.69l3.57,8.66,3.3-7.71a19.63,19.63,0,0,0,.73-1.88,2.94,2.94,0,0,0,.13-.81,1.22,1.22,0,0,0-.19-.68,1.34,1.34,0,0,0-.58-.45,3.92,3.92,0,0,0-1.41-.21v-.48Z"/><path d="M114.91,298.53v7.09h.33a2.62,2.62,0,0,0,2.31-1,6.57,6.57,0,0,0,.91-3.07h.47v9.11h-.47a7,7,0,0,0-.62-2.44,2.86,2.86,0,0,0-1.1-1.28,4.2,4.2,0,0,0-1.83-.32v4.9a7.23,7.23,0,0,0,.12,1.76,1,1,0,0,0,.44.52,1.91,1.91,0,0,0,1,.21h1a5.89,5.89,0,0,0,3.76-1.13,6.31,6.31,0,0,0,2-3.44h.46l-.75,5.53H108.53v-.47h.56a2.25,2.25,0,0,0,1.17-.27,1.16,1.16,0,0,0,.49-.62,5.41,5.41,0,0,0,.14-1.62V300.51a9.72,9.72,0,0,0-.06-1.45,1.22,1.22,0,0,0-.46-.69,2,2,0,0,0-1.28-.36h-.56v-.48h14v5.15h-.47a6.48,6.48,0,0,0-1-2.71,3.72,3.72,0,0,0-1.83-1.21,9.76,9.76,0,0,0-2.59-.23Z"/><path d="M131.58,307v4.88a5.51,5.51,0,0,0,.17,1.77,1.25,1.25,0,0,0,.59.59,3.88,3.88,0,0,0,1.56.22v.47h-8.56v-.47a3.71,3.71,0,0,0,1.58-.23,1.3,1.3,0,0,0,.58-.58,5.63,5.63,0,0,0,.16-1.77V300.59a5.66,5.66,0,0,0-.16-1.78,1.25,1.25,0,0,0-.59-.59,4,4,0,0,0-1.57-.21v-.48h7.77a16.25,16.25,0,0,1,4.44.44,4.48,4.48,0,0,1,3.19,4.36,4.19,4.19,0,0,1-1.34,3.18,5.44,5.44,0,0,1-2.38,1.2l4,5.89a8.54,8.54,0,0,0,1.13,1.42,2,2,0,0,0,1.17.44v.47h-5.27L132.68,307Zm0-8.53v7.62h.71a7.46,7.46,0,0,0,2.56-.33,2.56,2.56,0,0,0,1.34-1.18,4.4,4.4,0,0,0,.49-2.22,4.14,4.14,0,0,0-.9-2.94,3.8,3.8,0,0,0-2.88-.95Z"/><path d="M160.54,297.13v6.14h-.46a7.87,7.87,0,0,0-2.47-3.83,5.74,5.74,0,0,0-3.62-1.31,4.56,4.56,0,0,0-3.12,1.1,5.94,5.94,0,0,0-1.76,3.06,15.52,15.52,0,0,0-.52,4,15.23,15.23,0,0,0,.57,4.39,5,5,0,0,0,1.83,2.77,5.09,5.09,0,0,0,3,.89,5.89,5.89,0,0,0,1.24-.14,8.34,8.34,0,0,0,1.3-.39v-3.62a4.1,4.1,0,0,0-.13-1.33,1.27,1.27,0,0,0-.56-.54,2.09,2.09,0,0,0-1-.25h-.43v-.47h8.12v.47a3.48,3.48,0,0,0-1.29.27,1.28,1.28,0,0,0-.56.66,3.89,3.89,0,0,0-.11,1.19v3.62a15.73,15.73,0,0,1-3.33,1.12,17,17,0,0,1-3.6.38,10,10,0,0,1-4-.67,9.84,9.84,0,0,1-2.78-1.77,8.36,8.36,0,0,1-1.88-2.47,9.61,9.61,0,0,1,1.79-10.6,8.93,8.93,0,0,1,6.67-2.71,11,11,0,0,1,2.25.21,11.35,11.35,0,0,1,1.75.58,7.07,7.07,0,0,0,1.44.48,1,1,0,0,0,.64-.26,2.33,2.33,0,0,0,.54-1Z"/><path d="M169.05,297.53l8.25,10.79v-7.48a3.66,3.66,0,0,0-.43-2.12,2.34,2.34,0,0,0-2-.71v-.48h5.53V298a4.08,4.08,0,0,0-1.43.36,1.47,1.47,0,0,0-.56.73,5,5,0,0,0-.21,1.74v14.49h-.42l-11.3-14.49V311.9a2.5,2.5,0,0,0,.66,2,2.36,2.36,0,0,0,1.51.53h.39v.47h-5.93v-.47a2.63,2.63,0,0,0,1.92-.59,2.86,2.86,0,0,0,.55-2V299.62l-.36-.46a3.5,3.5,0,0,0-.94-.91,2.7,2.7,0,0,0-1.17-.24v-.48Z"/><path d="M187.88,298.53v7.09h.34a2.59,2.59,0,0,0,2.3-1,6.68,6.68,0,0,0,.92-3.07h.46v9.11h-.46a7,7,0,0,0-.63-2.44,2.74,2.74,0,0,0-1.1-1.28,4.2,4.2,0,0,0-1.83-.32v4.9a7.23,7.23,0,0,0,.12,1.76,1,1,0,0,0,.44.52,1.93,1.93,0,0,0,1,.21h1a5.85,5.85,0,0,0,3.76-1.13,6.32,6.32,0,0,0,2-3.44h.45l-.75,5.53H181.51v-.47h.55a2.2,2.2,0,0,0,1.17-.27,1.18,1.18,0,0,0,.5-.62,5.56,5.56,0,0,0,.13-1.62V300.51a9.72,9.72,0,0,0-.06-1.45,1.17,1.17,0,0,0-.46-.69,2,2,0,0,0-1.28-.36h-.55v-.48h14v5.15H195a6.47,6.47,0,0,0-1-2.71,3.72,3.72,0,0,0-1.83-1.21,9.71,9.71,0,0,0-2.59-.23Z"/><path d="M205.65,310.22h-7.19v-2.65h7.19Z"/><path d="M213,307v4.88a5.63,5.63,0,0,0,.16,1.77,1.25,1.25,0,0,0,.59.59,3.9,3.9,0,0,0,1.57.22v.47h-8.56v-.47a3.69,3.69,0,0,0,1.57-.23,1.3,1.3,0,0,0,.58-.58,5.51,5.51,0,0,0,.17-1.77V300.59a5.55,5.55,0,0,0-.17-1.78,1.25,1.25,0,0,0-.59-.59,3.92,3.92,0,0,0-1.56-.21v-.48h7.77a16.35,16.35,0,0,1,4.44.44,4.49,4.49,0,0,1,2.29,1.61,4.44,4.44,0,0,1,.89,2.75,4.22,4.22,0,0,1-1.33,3.18,5.49,5.49,0,0,1-2.38,1.2l4,5.89a8.67,8.67,0,0,0,1.12,1.42,2.05,2.05,0,0,0,1.17.44v.47h-5.27L214.06,307Zm0-8.53v7.62h.7a7.57,7.57,0,0,0,2.57-.33,2.58,2.58,0,0,0,1.33-1.18,4.4,4.4,0,0,0,.49-2.22,4.19,4.19,0,0,0-.89-2.94,3.83,3.83,0,0,0-2.88-.95Z"/><path d="M231.4,306.56V312a5.4,5.4,0,0,0,.15,1.67,1.33,1.33,0,0,0,.55.59,2.24,2.24,0,0,0,1.12.25h.55v.47H225v-.47h.55a2.27,2.27,0,0,0,1.18-.27,1.21,1.21,0,0,0,.49-.62,5.56,5.56,0,0,0,.13-1.62V300.51a6.05,6.05,0,0,0-.13-1.67,1.21,1.21,0,0,0-.55-.58,2.14,2.14,0,0,0-1.12-.25H225v-.48h8.74V298h-.55a2.2,2.2,0,0,0-1.17.27,1.17,1.17,0,0,0-.51.61,5.51,5.51,0,0,0-.14,1.62v4.93h5.91v-4.93a6.05,6.05,0,0,0-.13-1.67,1.24,1.24,0,0,0-.56-.58,2.14,2.14,0,0,0-1.12-.25H235v-.48h8.73V298h-.54a2.22,2.22,0,0,0-1.18.27,1.2,1.2,0,0,0-.5.61,5.51,5.51,0,0,0-.14,1.62V312a5.9,5.9,0,0,0,.14,1.67,1.28,1.28,0,0,0,.55.59,2.28,2.28,0,0,0,1.13.25h.54v.47H235v-.47h.54a2.2,2.2,0,0,0,1.17-.27,1.29,1.29,0,0,0,.51-.62,5.56,5.56,0,0,0,.13-1.62v-5.39Z"/><path d="M253.9,297.29a8.16,8.16,0,0,1,6.49,2.42,8.89,8.89,0,0,1,2.5,6.46A9.52,9.52,0,0,1,261,312a8.16,8.16,0,0,1-7,3.34,8.31,8.31,0,0,1-7-3.18,9.47,9.47,0,0,1-2-6,8.86,8.86,0,0,1,2.54-6.46A7.89,7.89,0,0,1,253.9,297.29Zm.15.82a3.76,3.76,0,0,0-3.49,2.44,13.44,13.44,0,0,0-1,5.74q0,4.45,1.51,6.59a3.68,3.68,0,0,0,5,.84,5.18,5.18,0,0,0,1.69-2.62,14.89,14.89,0,0,0,.61-4.7,16.31,16.31,0,0,0-.62-5.17,5.07,5.07,0,0,0-1.57-2.42A3.61,3.61,0,0,0,254.05,298.11Zm1.38-6.52,2.5,4.9H257l-2.93-2.64-3,2.57h-1l2.63-4.83Z"/><path d="M270.08,297.53l8.25,10.79v-7.48a3.66,3.66,0,0,0-.43-2.12,2.36,2.36,0,0,0-2-.71v-.48h5.53V298a4.08,4.08,0,0,0-1.43.36,1.47,1.47,0,0,0-.56.73,5,5,0,0,0-.21,1.74v14.49h-.42l-11.31-14.49V311.9a2.5,2.5,0,0,0,.66,2,2.38,2.38,0,0,0,1.52.53h.39v.47h-5.93v-.47a2.63,2.63,0,0,0,1.92-.59,2.87,2.87,0,0,0,.54-2V299.62l-.35-.46a3.5,3.5,0,0,0-.94-.91,2.7,2.7,0,0,0-1.17-.24v-.48Z"/><path d="M288.91,298.53v7.09h.33a2.61,2.61,0,0,0,2.31-1,6.57,6.57,0,0,0,.91-3.07h.47v9.11h-.47a6.79,6.79,0,0,0-.62-2.44,2.8,2.8,0,0,0-1.1-1.28,4.2,4.2,0,0,0-1.83-.32v4.9a7.23,7.23,0,0,0,.12,1.76,1,1,0,0,0,.44.52,1.93,1.93,0,0,0,1,.21h1a5.87,5.87,0,0,0,3.76-1.13,6.38,6.38,0,0,0,2-3.44h.45l-.75,5.53H282.54v-.47h.55a2.2,2.2,0,0,0,1.17-.27,1.18,1.18,0,0,0,.5-.62,5.56,5.56,0,0,0,.13-1.62V300.51a9.72,9.72,0,0,0-.06-1.45,1.17,1.17,0,0,0-.46-.69,2,2,0,0,0-1.28-.36h-.55v-.48h14v5.15h-.47a6.35,6.35,0,0,0-1-2.71,3.72,3.72,0,0,0-1.83-1.21,9.76,9.76,0,0,0-2.59-.23Z"/><path d="M306.68,310.22h-7.19v-2.65h7.19Z"/><path d="M317.79,310h-5.9l-.71,1.69a3.89,3.89,0,0,0-.34,1.4,1.17,1.17,0,0,0,.57,1.08,4.55,4.55,0,0,0,1.64.31v.47h-5.57v-.47a2.49,2.49,0,0,0,1.48-.78,10.27,10.27,0,0,0,1.44-2.63l6-13.88h.23l6,14.27a8.85,8.85,0,0,0,1.42,2.55,1.9,1.9,0,0,0,1.18.47v.47h-8.09v-.47h.34a2.45,2.45,0,0,0,1.37-.29.68.68,0,0,0,.27-.59,1.6,1.6,0,0,0-.08-.47,9.22,9.22,0,0,0-.37-1Zm-.41-1-2.5-6-2.56,6Z"/><path d="M341.47,308.82l-.63,6.11H326v-.47h.55a2.2,2.2,0,0,0,1.17-.27,1.18,1.18,0,0,0,.5-.62,5.56,5.56,0,0,0,.13-1.62V300.51a6.05,6.05,0,0,0-.13-1.67,1.26,1.26,0,0,0-.55-.58,2.14,2.14,0,0,0-1.12-.25H326v-.48h8.91V298h-.72a2.27,2.27,0,0,0-1.18.27,1.2,1.2,0,0,0-.5.61,5.51,5.51,0,0,0-.14,1.62v11.08a5.74,5.74,0,0,0,.15,1.7,1,1,0,0,0,.58.55,5.44,5.44,0,0,0,1.49.12H336a4.67,4.67,0,0,0,2.22-.49,4.26,4.26,0,0,0,1.53-1.54,13,13,0,0,0,1.23-3.11Z"/><path d="M349.19,307.05v4.83a5.51,5.51,0,0,0,.17,1.77,1.25,1.25,0,0,0,.59.59,3.94,3.94,0,0,0,1.56.22v.47H343v-.47a3.69,3.69,0,0,0,1.57-.23,1.3,1.3,0,0,0,.58-.58,5.63,5.63,0,0,0,.16-1.77V300.59a5.66,5.66,0,0,0-.16-1.78,1.25,1.25,0,0,0-.59-.59A3.92,3.92,0,0,0,343,298v-.48h7.28c2.4,0,4.13.45,5.17,1.34A4.19,4.19,0,0,1,357,302.2a4.38,4.38,0,0,1-1,2.9,5.1,5.1,0,0,1-2.79,1.64A18.06,18.06,0,0,1,349.19,307.05Zm0-8.52v7.52l.62,0a2.92,2.92,0,0,0,2.32-.93,4.31,4.31,0,0,0,.81-2.88,4.15,4.15,0,0,0-.81-2.84,3.1,3.1,0,0,0-2.43-.9Z"/><path d="M364.68,298.53v7.09H365a2.59,2.59,0,0,0,2.3-1,6.68,6.68,0,0,0,.92-3.07h.46v9.11h-.46a7,7,0,0,0-.63-2.44,2.74,2.74,0,0,0-1.1-1.28,4.2,4.2,0,0,0-1.83-.32v4.9a7.23,7.23,0,0,0,.12,1.76,1,1,0,0,0,.44.52,1.93,1.93,0,0,0,1,.21h1a5.85,5.85,0,0,0,3.76-1.13,6.32,6.32,0,0,0,2-3.44h.45l-.75,5.53H358.31v-.47h.55a2.2,2.2,0,0,0,1.17-.27,1.18,1.18,0,0,0,.5-.62,5.56,5.56,0,0,0,.13-1.62V300.51a9.72,9.72,0,0,0-.06-1.45,1.2,1.2,0,0,0-.45-.69,2.1,2.1,0,0,0-1.29-.36h-.55v-.48h14v5.15h-.47a6.47,6.47,0,0,0-1-2.71,3.72,3.72,0,0,0-1.83-1.21,9.71,9.71,0,0,0-2.59-.23Z"/><path d="M386.51,297.13l.14,5.8h-.51a6.07,6.07,0,0,0-1.75-3.51,4.37,4.37,0,0,0-3-1.32,2.73,2.73,0,0,0-2,.7,2.15,2.15,0,0,0-.74,1.61,2,2,0,0,0,.26,1,4.4,4.4,0,0,0,1.15,1.2,26.14,26.14,0,0,0,2.67,1.5,11.84,11.84,0,0,1,4,2.83,4.9,4.9,0,0,1,1,3.06,5,5,0,0,1-1.63,3.75,5.73,5.73,0,0,1-4.15,1.57,6,6,0,0,1-1.49-.17,10.77,10.77,0,0,1-1.77-.63,2.56,2.56,0,0,0-1-.25,1.19,1.19,0,0,0-.68.25,1.87,1.87,0,0,0-.58.79H376v-6.57h.45A7.63,7.63,0,0,0,378.5,313a4.8,4.8,0,0,0,3.34,1.45,3.07,3.07,0,0,0,2.2-.78,2.43,2.43,0,0,0,.82-1.82,2.61,2.61,0,0,0-.31-1.2,3.69,3.69,0,0,0-1-1.09,14.17,14.17,0,0,0-2.27-1.36,19.68,19.68,0,0,1-3.28-2,6,6,0,0,1-1.54-1.84,5,5,0,0,1,.94-5.77,5,5,0,0,1,3.7-1.47,5.89,5.89,0,0,1,1.57.21,7.45,7.45,0,0,1,1.42.57,3.19,3.19,0,0,0,1.16.42.65.65,0,0,0,.51-.21,2.31,2.31,0,0,0,.34-1Z"/></g><path d="M462.1,200V49.5h51.6c9.1,0,16,.5,20.8,1.4a39.25,39.25,0,0,1,16.9,7,37.46,37.46,0,0,1,11,14.5,49.45,49.45,0,0,1,4.2,20.5c0,12.8-3.7,23.6-11.1,32.5s-20.8,13.3-40.2,13.3H480.2V200Zm18.1-79h35.4q17.55,0,24.9-7.2c4.9-4.8,7.4-11.5,7.4-20.2,0-6.3-1.4-11.7-4.3-16.2a20.72,20.72,0,0,0-11.4-8.9c-3.1-.9-8.7-1.3-16.9-1.3h-35V121Z" style="fill:#fff"/><path d="M588.9,200V49.5H607V182.2h67.4V200Z" style="fill:#fff"/><path d="M681,200,733.6,49.5h19.5l56,150.5H788.5l-16-45.6H715.3l-15,45.6Zm39.5-61.8h46.4L752.6,96.5c-4.4-12.7-7.6-23.1-9.7-31.2A198.46,198.46,0,0,1,735.5,94Z" style="fill:#fff"/><path d="M823.4,200V49.5H842l71.9,118.2V49.5h17.4V200H912.7L840.8,81.7V200Z" style="fill:#fff"/><path d="M962.1,200V49.5h99V67.3H980.2v46.1h75.7V131H980.2v51.2h84.1V200Zm64.3-159.8h-13.5L991.3,11.5h22.5Z" style="fill:#fff"/><path d="M1124.2,200V67.2H1079V49.5h108.5V67.3h-45.3V200Z" style="fill:#fff"/><path d="M1206.5,200V49.5h99V67.3h-80.9v46.1h75.7V131h-75.7v51.2h84.1V200Z" style="fill:#fff"/><path d="M461.6,452.3V301.8h27.3l32.4,106.6c3,9.9,5.2,17.3,6.5,22.3,1.6-5.5,4-13.5,7.3-24.1l32.8-104.7h24.4V452.4H574.8v-126L535,452.4H518.7L479,324.1V452.2H461.6Z" style="fill:#fff"/><path d="M606.4,452.3,659,301.8h19.5l56,150.5H713.9l-16-45.6H640.7l-15,45.6Zm39.5-61.8h46.4L678,348.8c-4.4-12.7-7.6-23.1-9.7-31.2a195.17,195.17,0,0,1-7.4,28.7Z" style="fill:#fff"/><path d="M769.6,452.3V319.5H724.5V301.7H833v17.8H787.7V452.2H769.6Z" style="fill:#fff"/><path d="M852.2,452.3V301.8h18.1v61.8h71.2V301.8h18.1V452.3H941.5V381.4H870.3v70.9Z" style="fill:#fff"/><path d="M983.6,403.9l17.1-1.6c.8,7.5,2.7,13.7,5.6,18.5s7.5,8.7,13.8,11.7a47.6,47.6,0,0,0,21,4.5,45.61,45.61,0,0,0,18.3-3.4c5.3-2.3,9.2-5.4,11.8-9.3a22.77,22.77,0,0,0,3.9-12.9,21.1,21.1,0,0,0-3.7-12.4c-2.5-3.5-6.6-6.5-12.3-8.9-3.7-1.6-11.8-4-24.4-7.3s-21.4-6.5-26.4-9.4c-6.5-3.8-11.4-8.4-14.6-14a36.93,36.93,0,0,1-4.8-18.7,41.21,41.21,0,0,1,5.9-21.3,37.22,37.22,0,0,1,17.2-15,60.22,60.22,0,0,1,25.1-5.1c10.1,0,19.1,1.8,26.8,5.4a39.65,39.65,0,0,1,17.9,15.9,48.43,48.43,0,0,1,6.7,23.7l-17.4,1.4c-.9-9.5-4.1-16.7-9.5-21.6s-13.3-7.3-23.9-7.3c-11,0-18.9,2.2-24,6.6s-7.5,9.7-7.5,16a17.85,17.85,0,0,0,5.3,13.3c3.5,3.5,12.6,7.1,27.3,10.7s24.8,6.9,30.3,9.6c8,4,13.9,9.2,17.7,15.3a40,40,0,0,1,5.7,21.4,43.34,43.34,0,0,1-6.3,22.6,42.37,42.37,0,0,1-18,16.5,58.24,58.24,0,0,1-26.4,5.9c-12.4,0-22.8-2-31.1-6A44.89,44.89,0,0,1,991,430.8,54.34,54.34,0,0,1,983.6,403.9Z" style="fill:#fff"/></svg>